<?xml version="1.0" encoding="UTF-8" standalone="no"?>
<!-- Created with Inkscape (http://www.inkscape.org/) -->

<svg
   xmlns:dc="http://purl.org/dc/elements/1.1/"
   xmlns:cc="http://creativecommons.org/ns#"
   xmlns:rdf="http://www.w3.org/1999/02/22-rdf-syntax-ns#"
   xmlns:svg="http://www.w3.org/2000/svg"
   xmlns="http://www.w3.org/2000/svg"
   xmlns:sodipodi="http://sodipodi.sourceforge.net/DTD/sodipodi-0.dtd"
   xmlns:inkscape="http://www.inkscape.org/namespaces/inkscape"
   width="210mm"
   height="297mm"
   id="svg11684"
   version="1.1"
   inkscape:version="0.48.5 r10040"
   sodipodi:docname="bg.svg"
   inkscape:export-filename="E:\Drawing\Musyda XVII IMM Jateng\musyda_xvii_web_assets\bg.png"
   inkscape:export-xdpi="299"
   inkscape:export-ydpi="299">
  <defs
     id="defs3">
    <clipPath
       clipPathUnits="userSpaceOnUse"
       id="clipPath10029">
      <path
         sodipodi:nodetypes="ccccccccccccccccccc"
         inkscape:connector-curvature="0"
         d="m -212.20531,-271.87075 5.93386,3.42592 5.95557,3.43841 c 0.38121,0.27148 0.53447,0.63564 0.53447,0.96277 l 0,6.83974 0,6.8352 c 0.006,0.32836 -0.15266,0.74517 -0.5804,0.99382 l -5.90964,3.41188 -5.88573,3.39816 c -0.25622,0.11883 -0.63637,0.31273 -1.20279,0.003 l -5.89126,-3.40135 -5.97126,-3.44746 c -0.29529,-0.21944 -0.53484,-0.48738 -0.51877,-1.06233 l 0,-6.73111 0,-6.79625 c -0.0357,-0.67128 0.54119,-1.02332 0.58854,-1.03748 l 5.90149,-3.40719 5.95263,-3.43677 c 0.5488,-0.27541 0.97353,-0.0503 1.09329,0.0109 z"
         style="fill:#0000ff;fill-opacity:1;fill-rule:evenodd;stroke:none"
         id="path10031" />
    </clipPath>
    <clipPath
       clipPathUnits="userSpaceOnUse"
       id="clipPath86403">
      <rect
         y="-100.25127"
         x="842.22211"
         height="162.81927"
         width="1578.3718"
         id="rect86405"
         style="fill:#7a4737;fill-opacity:1;stroke:none" />
    </clipPath>
    <clipPath
       clipPathUnits="userSpaceOnUse"
       id="clipPath3356">
      <path
         inkscape:connector-curvature="0"
         d="m 636.71754,944.89364 14.67345,8.47174 14.67377,8.47182 0,16.94354 0,16.94356 -14.67377,8.4718 -14.67345,8.4718 -14.67344,-8.4718 -14.67376,-8.4718 0,-16.94356 0,-16.94354 14.67376,-8.47182 14.67344,-8.47174 z"
         style="fill:#0000ff;fill-opacity:1;fill-rule:evenodd;stroke:none"
         id="path3358" />
    </clipPath>
  </defs>
  <sodipodi:namedview
     inkscape:document-units="mm"
     id="base"
     pagecolor="#ffffff"
     bordercolor="#666666"
     borderopacity="1.0"
     inkscape:pageopacity="0.0"
     inkscape:pageshadow="2"
     inkscape:zoom="0.70916353"
     inkscape:cx="533.73039"
     inkscape:cy="1235.1531"
     inkscape:current-layer="layer1"
     showgrid="false"
     inkscape:window-width="1366"
     inkscape:window-height="705"
     inkscape:window-x="-4"
     inkscape:window-y="-4"
     inkscape:window-maximized="1"
     showguides="true"
     inkscape:guide-bbox="true"
     inkscape:snap-to-guides="false"
     inkscape:snap-grids="false">
    <sodipodi:guide
       orientation="0,1"
       position="1143.2986,1309.4514"
       id="guide102712" />
  </sodipodi:namedview>
  <metadata
     id="metadata4">
    <rdf:RDF>
      <cc:Work
         rdf:about="">
        <dc:format>image/svg+xml</dc:format>
        <dc:type
           rdf:resource="http://purl.org/dc/dcmitype/StillImage" />
        <dc:title></dc:title>
      </cc:Work>
    </rdf:RDF>
  </metadata>
  <g
     inkscape:label="Layer 1"
     inkscape:groupmode="layer"
     id="layer1">
    <rect
       style="fill:#800000;fill-opacity:1;stroke:none;stroke-width:5.67992115000000020;stroke-linecap:butt;stroke-linejoin:miter;stroke-miterlimit:4;stroke-opacity:1;stroke-dasharray:none"
       id="rect11701"
       width="1577.9928"
       height="1800.0001"
       x="-250.0027"
       y="-273.87839"
       inkscape:export-filename="C:\xampp\htdocs\musydaimmjateng\asset\theme\blue-clouds\images\bg.png"
       inkscape:export-xdpi="90.000412"
       inkscape:export-ydpi="90.000412" />
    <rect
       style="fill:#ffffff;fill-opacity:1;stroke:none;stroke-width:1"
       id="rect75008"
       width="1000.4581"
       height="1625.2559"
       x="36.060871"
       y="-103.22208" />
    <g
       id="g10033"
       inkscape:export-filename="C:\xampp\htdocs\dinas-pendidikan\asset\theme\blue-clouds\images\fb.png"
       inkscape:export-xdpi="299.70999"
       inkscape:export-ydpi="299.70999"
       transform="translate(0,-66.256933)">
      <path
         sodipodi:nodetypes="ccccccccccccccccccc"
         inkscape:connector-curvature="0"
         d="m -212.20531,-271.87075 5.93386,3.42592 5.95557,3.43841 c 0.38121,0.27148 0.53447,0.63564 0.53447,0.96277 l 0,6.83974 0,6.8352 c 0.006,0.32836 -0.15266,0.74517 -0.5804,0.99382 l -5.90964,3.41188 -5.88573,3.39816 c -0.25622,0.11883 -0.63637,0.31273 -1.20279,0.003 l -5.89126,-3.40135 -5.97126,-3.44746 c -0.29529,-0.21944 -0.53484,-0.48738 -0.51877,-1.06233 l 0,-6.73111 0,-6.79625 c -0.0357,-0.67128 0.54119,-1.02332 0.58854,-1.03748 l 5.90149,-3.40719 5.95263,-3.43677 c 0.5488,-0.27541 0.97353,-0.0503 1.09329,0.0109 z"
         style="fill:#0000ff;fill-opacity:1;fill-rule:evenodd;stroke:none"
         id="path3778" />
      <text
         clip-path="url(#clipPath10029)"
         sodipodi:linespacing="125%"
         id="text10023"
         y="-238.91107"
         x="-220.32426"
         style="font-size:35.8287735px;font-style:normal;font-variant:normal;font-weight:normal;font-stretch:normal;line-height:125%;letter-spacing:0px;word-spacing:0px;fill:#ffffff;fill-opacity:1;stroke:none;font-family:Puritan;-inkscape-font-specification:Puritan"
         xml:space="preserve"><tspan
           y="-238.91107"
           x="-220.32426"
           id="tspan10025"
           sodipodi:role="line">f</tspan></text>
    </g>
    <g
       id="g10076"
       inkscape:export-filename="C:\xampp\htdocs\dinas-pendidikan\asset\theme\blue-clouds\images\fb_hover.png"
       inkscape:export-xdpi="299.70999"
       inkscape:export-ydpi="299.70999"
       transform="translate(0,-66.256933)">
      <path
         id="path10040"
         style="fill:#cccccc;fill-opacity:1;fill-rule:evenodd;stroke:none"
         d="m -185.04816,-271.87075 5.93386,3.42592 5.95557,3.43841 c 0.38121,0.27148 0.53447,0.63564 0.53447,0.96277 l 0,6.83974 0,6.8352 c 0.006,0.32836 -0.15266,0.74517 -0.5804,0.99382 l -5.90964,3.41188 -5.88573,3.39816 c -0.25622,0.11883 -0.63637,0.31273 -1.20279,0.003 l -5.89126,-3.40135 -5.97126,-3.44746 c -0.29529,-0.21944 -0.53484,-0.48738 -0.51877,-1.06233 l 0,-6.73111 0,-6.79625 c -0.0357,-0.67128 0.54119,-1.02332 0.58854,-1.03748 l 5.90149,-3.40719 5.95263,-3.43677 c 0.5488,-0.27541 0.97353,-0.0503 1.09329,0.0109 z"
         inkscape:connector-curvature="0"
         sodipodi:nodetypes="ccccccccccccccccccc" />
      <text
         transform="translate(27.157147,0)"
         xml:space="preserve"
         style="font-size:35.8287735px;font-style:normal;font-variant:normal;font-weight:normal;font-stretch:normal;line-height:125%;letter-spacing:0px;word-spacing:0px;fill:#ffffff;fill-opacity:1;stroke:none;font-family:Puritan;-inkscape-font-specification:Puritan"
         x="-220.32426"
         y="-238.91107"
         id="text10042"
         sodipodi:linespacing="125%"
         clip-path="url(#clipPath10029)"><tspan
           sodipodi:role="line"
           id="tspan10044"
           x="-220.32426"
           y="-238.91107">f</tspan></text>
    </g>
    <rect
       y="-118.48609"
       x="-250.30371"
       height="38.99485"
       width="1578.3718"
       id="rect75006"
       style="fill:#ff0000;stroke:none" />
    <g
       id="g10081"
       inkscape:export-filename="C:\xampp\htdocs\dinas-pendidikan\asset\theme\blue-clouds\images\immsetab.png"
       inkscape:export-xdpi="299.70999"
       inkscape:export-ydpi="299.70999"
       transform="translate(0,-66.256933)">
      <path
         sodipodi:nodetypes="ccccccccccccccccccc"
         inkscape:connector-curvature="0"
         d="m -156.58165,-271.92599 5.95616,3.43881 5.97794,3.45133 c 0.38265,0.27249 0.53648,0.63802 0.53648,0.96639 l 0,6.86544 0,6.86088 c 0.006,0.3296 -0.15323,0.74798 -0.58257,0.99756 l -5.93185,3.42471 -5.90786,3.41092 c -0.25718,0.11928 -0.63876,0.31391 -1.2073,0.003 l -5.91341,-3.41413 -5.9937,-3.46042 c -0.29639,-0.22026 -0.53684,-0.48921 -0.52072,-1.06632 l 0,-6.7564 0,-6.82179 c -0.0359,-0.67381 0.54323,-1.02717 0.59076,-1.04138 l 5.92366,-3.42 5.975,-3.44968 c 0.55086,-0.27645 0.97719,-0.0505 1.09741,0.0109 z"
         style="fill:#cccccc;fill-opacity:1;fill-rule:evenodd;stroke:none"
         id="path3778-5" />
      <path
         id="path3780"
         d="m -159.59755,-269.20115 -0.0914,1.12613 -2.42067,0.005 -0.0289,17.02648 1.57849,1.52074 0.0241,0.72667 0.85661,1.41488 0.005,0.96249 2.5073,2.27148 2.5121,-2.2763 0.0192,-0.95767 0.88549,-1.44856 -0.0241,-0.70742 1.63624,-1.51113 -0.0289,-17.02647 -2.48804,0.0385 -0.077,-1.12131 -4.8654,-0.0433 z"
         style="fill:#ffffff;fill-opacity:1;fill-rule:evenodd;stroke:none"
         inkscape:connector-curvature="0"
         sodipodi:nodetypes="ccccccccccccccccccc" />
    </g>
    <path
       style="fill:#cccccc;fill-opacity:1;stroke:none"
       d="m -157.16211,-330.65488 -0.0111,0.006 -0.0166,0.006 -0.0111,0.0166 -0.0111,0.006 -0.0111,0.006 -0.006,0.0166 -0.0166,0.006 -0.0111,0.0166 -0.0111,0.006 -0.0111,0.0111 -0.006,0.0111 -0.0166,0.0111 -0.0111,0.0111 -0.006,0.0166 -0.0111,0.0166 -0.0111,0.006 -0.006,0.0111 -0.0111,0.0166 -0.0111,0.006 -0.006,0.0166 -0.0111,0.0111 -0.0111,0.0166 -0.006,0.0111 -0.0111,0.0166 -0.006,0.0111 -0.0166,0.0166 -0.006,0.0111 -0.006,0.0222 -0.0166,0.0166 -0.006,0.0222 -0.006,0.0166 -0.0166,0.0222 -0.006,0.0166 -0.0111,0.0166 -0.0222,0.0222 -0.006,0.0111 -0.0166,0.0222 -0.006,0.0166 -0.0111,0.0166 -0.0111,0.0222 -0.0111,0.0166 -0.006,0.0111 -0.0166,0.0277 -0.006,0.0111 -0.006,0.0222 -0.0166,0.0166 -0.006,0.0222 -0.0166,0.0111 -0.006,0.0222 -0.006,0.0222 -0.0166,0.0111 -0.006,0.0222 -0.0166,0.0111 -0.006,0.0222 -0.006,0.0277 -0.006,0.0222 -0.0166,0.0111 -0.006,0.0222 -0.006,0.0222 -0.0222,0.0222 -0.006,0.0277 -0.006,0.0166 -0.0111,0.0222 -0.0111,0.0222 0,0.006 -0.0277,0.0776 -0.0333,0.0776 -0.0333,0.0831 -0.0277,0.0831 -0.0166,0.0831 -0.0222,0.072 -0.0277,0.0831 -0.0111,0.0831 -0.0166,0.0776 -0.006,0.0831 -0.0166,0.0776 -0.006,0.0831 0,0.0776 0,0.0665 0,0.0831 0.006,0.072 0.0166,0.072 0.006,0.0665 0.0166,0.0721 0.0111,0.072 0.0277,0.061 0.0222,0.0721 0.0277,0.061 0.0277,0.061 0.0277,0.0554 0.0333,0.061 0.0332,0.0554 0.0499,0.0499 0.0222,0.0222 0,0.0443 0,0.0388 0,0.0333 0,0.0333 0.006,0.0388 0.006,0.0333 0,0.0333 0.006,0.0277 0.0111,0.0333 0.006,0.0277 0.006,0.0277 0.006,0.0333 0.0166,0.0166 0.006,0.0277 0.0166,0.0222 0.0111,0.0222 0.0111,0.0222 0.0111,0.0222 0.0222,0.0222 0.0111,0.0166 0.0166,0.0111 0.0222,0.0166 0.0222,0.0111 0.0111,0.0111 0,-0.0277 0.0111,-0.0166 c 0.007,0.004 0.0203,0.0122 0.0277,0.0166 l -0.0111,0.0388 -0.0222,-0.006 -0.0166,1.02532 0.0388,-0.006 0,0.006 -0.0388,0 0,0.0222 -0.0166,-0.0277 -0.0166,-0.0277 -0.006,-0.0277 -0.0111,-0.0277 -0.0166,-0.0388 -0.006,-0.0277 -0.0166,-0.0277 -0.0111,-0.0333 -0.0166,-0.0277 -0.006,-0.0277 -0.0166,-0.0277 -0.0111,-0.0277 -0.006,-0.0277 -0.0166,-0.0277 -0.0111,-0.0277 -0.0111,-0.0222 -0.0111,-0.0333 -0.006,-0.0277 -0.0111,-0.0277 -0.0111,-0.0222 -0.0222,-0.0277 -0.006,-0.0166 -0.0111,-0.0277 -0.0111,-0.0277 -0.0111,-0.0222 -0.0166,-0.0333 -0.006,-0.0222 -0.0166,-0.0277 -0.006,-0.0222 -0.0111,-0.0222 -0.0166,-0.0277 -0.0111,-0.0166 -0.0111,-0.0222 -0.0111,-0.0277 -0.0166,-0.0277 -0.0111,-0.0222 -0.0166,-0.0222 -0.0111,-0.0166 -0.006,-0.0222 -0.0166,-0.0222 -0.0277,-0.0222 -0.0111,-0.0166 -0.0166,-0.0222 -0.006,-0.0166 -0.0222,-0.0166 -0.0111,-0.0277 -0.0166,-0.0222 -0.0111,-0.0166 -0.0222,-0.0166 -0.0166,-0.0166 -0.0111,-0.0222 -0.0166,-0.0111 -0.0166,-0.0222 -0.0166,-0.0111 -0.0277,-0.0222 -0.0111,-0.0166 -0.0166,-0.0111 -0.0222,-0.0222 -0.0111,-0.0222 -0.0222,-0.0111 -0.0222,-0.0166 -0.0111,-0.0166 -0.0222,-0.0166 -0.0222,-0.0111 -0.0111,-0.0166 -0.0222,-0.0166 -0.0222,-0.0111 -0.0222,-0.0166 -0.0166,-0.0111 -0.0222,-0.006 -0.0222,-0.0166 -0.0166,-0.0111 -0.0166,-0.0166 -0.0222,-0.006 -0.0166,-0.006 -0.0222,-0.0222 -0.0222,-0.006 -0.0111,-0.006 -0.0111,-0.0111 -0.0166,-0.006 -0.0277,-0.006 -0.0222,-0.006 -0.0222,-0.0166 -0.0222,-0.006 -0.0166,-0.006 -0.0222,-0.0111 -0.0222,-0.006 -0.0277,0 -0.0222,-0.006 -0.0166,-0.006 -0.0333,-0.0111 -0.0222,0 -0.0222,-0.006 -0.0277,0 -0.0222,-0.006 -0.0222,-0.006 -0.0277,0 -0.0166,0 -0.0222,-0.0111 -0.0333,0 -0.0222,0 -0.0222,-0.006 -0.0277,0 -0.0222,0 -0.0166,0 -0.0222,0 -0.0277,0 -0.0222,0 -0.0222,0 -0.0166,0 -0.0388,0 -0.0166,0 -0.0222,0 -0.0222,0 -0.0222,0 -0.0166,0 -0.0277,0 -0.0166,0 -0.0277,0 -0.0222,0 -0.0277,0 -0.0166,0 -0.0222,0 -0.0222,0 -0.0222,0.006 -0.0111,0 -0.0222,0 -0.0222,0 -0.0166,0 -0.0222,0.0111 -0.0222,0 -0.0166,0 -0.0222,0 -0.0222,0 -0.0166,0.006 -0.0166,0 -0.0166,0 -0.0222,0 -0.0166,0.006 -0.0166,0 -0.0111,0 -0.0222,0 -0.0166,0 -0.0111,0 -0.0277,0.006 -0.0166,0 -0.0111,0 -0.0166,0 -0.0111,0 -0.0166,0.0111 -0.0333,0 -0.0222,0 -0.0277,0.006 -0.0277,0 -0.0166,0 -0.0388,0.006 -0.0166,0 -0.0222,0 -0.0222,0.006 -0.0222,0 -0.0111,0.0111 -0.0222,0.006 -0.0111,0 -0.0222,0 -0.0166,0.006 -0.006,0.006 -0.0111,0 -0.0166,0.006 -0.0222,0.0111 -0.006,0.006 -0.006,0.006 -0.0166,0.006 -0.006,0.0166 -0.006,0.0111 0,0.0222 0,0.0166 0,0.0111 0.0111,0.006 0,0.0166 0.0166,0.006 0.006,0.006 0.006,0.0111 0.0166,0 0.0111,0.0111 0.0222,0.0166 0.0222,0.0111 0.0222,0.0166 0.0166,0.006 0.0166,0.0166 0.0222,0.0111 0.0166,0.0166 0.0166,0.0111 0.0222,0.006 0.0166,0.0166 0.0277,0.0166 0.0166,0.0166 0.0111,0.006 0.0222,0.0166 0.0166,0.0111 0.0166,0.006 0.0166,0.0166 0.0222,0.0166 0.0111,0.0111 0.0166,0.0166 0.0111,0.006 0.0166,0.0111 0.0111,0.0166 0.0166,0.0111 0.0111,0.0166 0.0222,0.006 0.0111,0.0166 0.0166,0.0111 0.006,0.0222 0.0166,0.0111 0.0111,0.0166 0.006,0.006 0.0111,0.0166 0.006,0.0111 0.0111,0.0166 0.0111,0.006 0.006,0.0111 0.006,0.0166 0.006,0.0111 0.0111,0.0166 0.006,0.006 0.006,0.0166 0.0166,0.0111 0,0.0166 0.006,0.0111 0.006,0.0166 0.006,0.0166 0.0111,0.0166 0.006,0.0111 0.006,0.0166 0.006,0.0166 0.0111,0.0111 0,0.0166 0.0111,0.0111 0.006,0.0166 0,0.0166 0.0111,0.0166 0.006,0.0111 0,0.0166 0.006,0.0166 0.006,0.0111 0,0.0222 0.0111,0.0111 0.006,0.0166 0,0.0166 0.006,0.0166 0,0.0111 0.006,0.0166 0,0.0166 0.0111,0.0111 0,0.0222 0.006,0.0111 0,0.0166 0.006,0.0111 0,0.0166 0.006,0.0222 0,0.0166 0.0111,0.0166 0,0.0222 0.006,0.0111 0,0.0166 0.006,0.0166 0,0.0166 0.006,0.0222 0,0.0111 0.0111,0.0166 0.006,0.0222 0,0.0111 0.006,0.0166 0.006,0.0166 0,0.0222 0.0111,0.0111 0.006,0.0222 0.006,0.0166 0,0.0111 0.006,0.0222 0.0111,0.0222 0.006,0.0222 0.006,0.0111 0.006,0.0222 0.0166,0.0111 0.006,0.0222 0.006,0.0166 0.0166,0.0222 0.006,0.0166 0.0166,0.0222 0.006,0.0111 0.006,0.0222 0.0166,0.0166 0.006,0.0166 0.0111,0.0166 0.0111,0.0222 0.006,0.0111 0.0111,0.0222 0.0111,0.0111 0.0111,0.0277 0.006,0.0166 0.0166,0.0222 0.006,0.0111 0.0166,0.0166 0.006,0.0166 0.0111,0.0222 0.0166,0.0166 0.006,0.0166 0.0166,0.0166 0.006,0.0222 0.0222,0.0111 0.006,0.0111 0.006,0.006 0.0166,0.006 0.0166,0.0222 0.0166,0.006 0.0111,0.0111 0.0222,0.0166 0.0166,0.006 0.0166,0.0166 0.0166,0.006 0.0222,0.0111 0.0111,0.0166 0.0166,0.0111 0.0277,0.0111 0.0111,0.0111 0.0222,0.0166 0.0111,0.006 0.0222,0.0166 0.0166,0.0111 0.0166,0.006 0.0166,0.0166 0.0222,0.0111 0.0111,0.0166 0.0166,0.0111 0.0166,0.0166 0.0166,0.0111 0.0222,0.006 0.0166,0.0166 0.0222,0.0111 0.0166,0.0111 0.0166,0.0111 0.0166,0.0166 0.0222,0.006 0.0111,0.0166 0.0222,0.006 0.0111,0.0111 0.0222,0.0166 0.006,0.006 0.0333,0.0554 0.006,-0.006 0.006,0 0,-0.006 0.006,0 0.0166,0 0,-0.0111 0.006,0 0.0111,0.0111 0.0166,0.006 0.0222,0.0111 0.0111,0.0111 0.0222,0.006 0.0111,0.0166 0.0222,0.0111 0.0166,0.006 0.0166,0.0166 0.0166,0.006 0.0166,0.006 0.0166,0.0166 0.0166,0.006 0.0277,0.006 0.0111,0.006 0.0222,0.0166 0.0111,0.006 0.0166,0.006 0.0222,0.0111 0.0111,0.006 0.0166,0.006 0.0166,0.006 0.0166,0.0166 0.0222,0.006 0.0111,0.006 0.0166,0.0111 0.0277,0.006 0.0111,0.006 0.0166,0.006 0.0111,0.0111 0.0222,0.006 0.0111,0.006 0.0166,0.006 0.0222,0.0111 0.0111,0.006 0.0166,0.006 0.0111,0.006 0.0166,0.0111 0.0222,0.006 0.0111,0.006 0.0166,0.0111 0.0166,0.0111 0.0222,0.006 0.0111,0.006 0.0166,0.006 0.0111,0.0111 0.0166,0.006 0.0222,0 0.0111,0.006 0.0166,0.006 0.0111,0.0111 0.0166,0.006 0.0111,0.006 0.0222,0.006 0.0166,0.0111 0.0111,0.006 0.0222,0 0.0111,0.006 0.0166,0.006 0.0111,0.0111 0.0166,0.006 0.0111,0.006 0.0166,0.006 0.0111,0.006 0.0166,0.0111 0.0111,0.006 0.0166,0 0.0111,0.006 0.0166,0.006 0.0111,0.0111 0.0166,0.006 0.0111,0.006 0.0222,0.006 0.0111,0.0111 0.0166,0.006 0.0111,0.006 0.0166,0.006 0.0111,0 0.0166,0.0111 0.0166,0.006 0.0111,0.006 0.0166,0.006 -0.0887,0 -0.0887,0 -0.0887,0 -0.0831,-0.006 -0.0942,-0.006 -0.0887,-0.0166 -0.0887,-0.006 -0.0831,-0.0111 -0.0831,-0.0222 -0.0887,-0.0166 -0.0831,-0.0166 -0.0776,-0.0222 -0.0887,-0.0222 -0.0776,-0.0277 -0.0887,-0.0222 -0.0776,-0.0388 -0.0776,-0.0277 -0.0776,-0.0277 -0.0776,-0.0333 -0.0776,-0.0388 -0.0831,-0.0388 -0.072,-0.0443 -0.072,-0.0388 -0.0776,-0.0443 -0.0776,-0.0388 -0.0665,-0.0499 -0.0831,-0.0443 -0.072,-0.0499 -0.0665,-0.0499 -0.072,-0.0554 -0.0776,-0.0499 -0.0554,0.0277 -0.061,0.38796 -0.32699,-0.0942 0.12193,-0.22169 -0.0166,-0.0499 -0.006,-0.006 0,-0.0111 -0.006,-0.006 -0.0111,0 -0.006,-0.006 -0.006,-0.006 -0.0111,-0.0111 -0.006,0 -0.006,-0.006 -0.0111,-0.006 -0.0111,-0.006 -0.006,0 -0.006,-0.0111 -0.006,-0.006 -0.0111,-0.006 -0.0111,0 -0.006,-0.006 -0.0111,-0.0111 -0.006,-0.006 -0.006,0 -0.006,-0.0111 -0.0166,-0.006 -0.006,0 -0.006,-0.0111 -0.0166,-0.006 -0.006,-0.006 -0.006,0 -0.0166,-0.006 -0.006,-0.0111 -0.006,-0.006 -0.0166,0 -0.006,-0.006 0.0111,0.0554 -0.006,0 -0.006,0 -0.006,-0.0111 -0.0166,0 -0.006,0 0,-0.006 0.0277,-0.0388 -0.0554,0.0111 -0.51543,0.83135 -0.0166,0.0388 -0.0166,0.0277 -0.0111,0.0277 -0.0166,0.0388 -0.0222,0.0277 -0.006,0.0222 -0.0111,0.0277 -0.0111,0.0277 -0.006,0.0277 -0.006,0.0222 0,0.0166 -0.0111,0.0277 0,0.0277 0,0.0277 0,0.0222 0,0.0222 0.0111,0.0277 0.006,0.0222 0.006,0.0166 0,0.0222 0.0166,0.0222 0.006,0.0222 0.006,0.0222 0.0166,0.0333 0.0111,0.0166 0.0166,0.0222 0.0111,0.0222 0.0166,0.0277 0.0111,0.0222 0.0166,0.0277 0.0111,0.0166 0.0222,0.0333 0.0554,0.072 0.0499,0.072 0.0499,0.0554 0.0443,0.0554 0.0554,0.0333 0.0554,0.0333 0.0499,0.0388 0.0499,0.0222 0.0499,0.0166 0.0554,0.006 0.0554,0.006 0.0443,-0.006 0.0443,-0.0111 0.0554,-0.0166 0.0499,-0.0333 0.0388,-0.0332 0.0443,-0.0333 0.0333,-0.0499 0.0443,-0.0499 0.0111,-0.0222 0.10531,0.0277 0.2882,-0.0554 0.0554,0.0333 0.0776,0.0388 -0.33808,0.0831 0.19398,0.0333 -0.11084,0.14964 0.46001,-0.16072 0.0443,0.0111 -0.60411,0.22724 -0.19398,0.26603 0.96436,-0.41567 0.0388,0.0111 -1.03641,0.50989 -0.19398,0.29375 1.38003,-0.74821 0.0333,0.0166 0.0222,0.006 -1.4798,0.85905 -0.31591,0.327 0.43784,-0.11085 1.55185,-1.01424 0.0443,0.0166 -1.4798,1.03087 0.35471,-0.0333 1.1916,-0.92556 -0.0166,-0.0333 0.0554,0.0831 0.0665,0.0776 0.0942,0.11639 0.0332,0.0388 -0.0111,-0.006 -0.67616,1.00315 -0.0166,0.31037 0.75375,-1.26364 0.0554,0.0499 -0.79255,1.35232 -0.0111,0.36579 0.88123,-1.6516 -0.0499,-0.0499 0.1441,0.0998 0.16073,0.0998 0.16073,0.061 -0.27712,1.08629 0.11639,-0.1441 0.061,0.1829 0.18289,-1.09183 0.0554,0.0222 -0.19399,1.19713 0.13302,0.27712 0.14964,-1.46871 0.0443,0.0111 -0.13301,1.56293 0.1441,0.33254 0.072,-1.88993 0.0388,0 -0.0388,1.98415 0.1053,0.46001 0.11639,-0.46001 -0.0222,-1.97861 0.0222,-0.006 0.072,1.88993 0.14964,-0.33254 -0.12193,-1.56293 -0.0388,0 0.0665,-0.0111 0.15519,1.49088 0.11638,-0.29928 -0.17735,-1.19714 0.0721,-0.0277 -0.0388,0.0277 0.20507,1.08075 0.0443,-0.19398 0.13301,0.13301 -0.2882,-1.05303 0.0388,-0.0222 0.34362,1.1528 0.23832,0.21615 -0.50989,-1.39666 0.0443,-0.0222 0.55423,1.45762 0.27157,0.22724 -0.73713,-1.71257 -0.0554,0.0166 0.0998,-0.0443 0.78701,1.77353 0.30483,0.36579 -0.11085,-0.48218 -0.85906,-1.73474 0.0277,-0.0166 0.87569,1.64052 -0.0166,-0.3658 -0.77038,-1.34677 0.0388,-0.0277 0.77038,1.24148 -0.0222,-0.31037 -0.68725,-0.99207 0.0333,-0.0333 0.70387,0.82581 -0.0665,-0.17736 0.16627,0.0277 -0.73158,-0.75376 0.0111,-0.0222 0.90894,0.76484 0.29374,0.0332 -1.14171,-0.87014 0.0111,-0.0111 0.0166,-0.0333 1.22485,0.88122 0.33808,0.0111 -1.51305,-0.97545 0.0222,-0.0333 1.60727,0.99761 0.43784,0.11085 -0.32146,-0.327 -1.52967,-0.85351 0.061,-0.0111 1.41883,0.7593 -0.18843,-0.31037 -1.08075,-0.50435 0.0277,-0.0166 0.0277,-0.006 0.98099,0.42121 -0.19398,-0.26049 -0.63737,-0.22723 0.0831,-0.0443 0.0111,0 0.50989,0.1441 -0.16073,-0.12747 0.17181,-0.072 -0.30482,-0.0554 0.0443,-0.0166 0.0831,-0.0499 0.0222,-0.0166 0.27712,0.0443 0.13855,-0.0554 0.0166,0.0166 0.0499,0.0388 0.0443,0.0222 0.0499,0.0222 0.0499,0.0166 0.0499,0.006 0.0499,0 0.0499,-0.0166 0.0499,-0.0111 0.0499,-0.0222 0.0499,-0.0388 0.0554,-0.0333 0.0554,-0.0443 0.0499,-0.0499 0.0499,-0.0554 0.0443,-0.0665 0.0499,-0.0776 0.0277,-0.0277 0.0166,-0.0222 0.0111,-0.0277 0.0166,-0.0222 0.0111,-0.0333 0.0166,-0.0166 0.0111,-0.0222 0.0166,-0.0222 0.0111,-0.0222 0.006,-0.0277 0.0166,-0.0222 0.006,-0.0166 0,-0.0222 0.006,-0.0222 0.0111,-0.0277 0.006,-0.0277 0,-0.0222 0,-0.0166 0,-0.0222 0,-0.0277 0,-0.0222 -0.006,-0.0277 -0.0111,-0.0222 -0.006,-0.0333 -0.006,-0.0277 -0.0166,-0.0277 -0.006,-0.0277 -0.0111,-0.0222 -0.0166,-0.0333 0.0554,0.0277 -0.1053,-0.16626 -0.006,-0.0111 -0.0222,0.0277 -0.0388,-0.0554 0.006,0 0.0277,0.0111 0.0166,0.006 -0.4988,-0.80363 0.006,0 -0.0222,-0.0332 -0.0277,0.0222 0.0166,0.0333 -0.0222,0.006 -0.006,0 0.0111,-0.0388 -0.006,0 -0.0166,0.006 -0.006,0.006 -0.0111,0 -0.0111,0.006 -0.0111,0.0111 -0.006,0.006 -0.0111,0.006 -0.006,0 -0.0111,0.006 -0.0111,0.0111 -0.006,0.006 -0.006,0 -0.0166,0.006 -0.006,0 -0.006,0.006 -0.0111,0.0111 -0.006,0.006 -0.006,0.006 -0.006,0 -0.0166,0.006 -0.006,0.0111 -0.006,0.006 -0.006,0 -0.0111,0.006 -0.006,0.006 -0.006,0.0111 -0.006,0 -0.0111,0.006 -0.006,0.006 -0.006,0.006 -0.006,0 -0.0222,0.0222 0.0111,0.0277 -0.006,0.0554 0.11085,0.2217 0.0277,-0.006 0.0222,0.0443 -0.0277,0.0111 -0.0277,-0.0499 -0.31037,0.0998 -0.0388,-0.18844 -0.0554,-0.0277 -0.0721,0.0499 -0.072,0.061 -0.0665,0.0499 -0.0776,0.0443 -0.0776,0.0443 -0.0665,0.0499 -0.0776,0.0443 -0.0776,0.0443 -0.0776,0.0388 -0.0665,0.0388 -0.0831,0.0388 -0.0776,0.0388 -0.0776,0.0388 -0.0831,0.0277 -0.0776,0.0277 -0.0831,0.0333 -0.0776,0.0222 -0.0776,0.0277 -0.0887,0.0222 -0.0776,0.0222 -0.0831,0.0166 -0.0887,0.0222 -0.0887,0.0222 -0.0831,0.0111 -0.0887,0.006 -0.0887,0.0166 -0.0831,0.006 -0.0998,0.006 -0.0831,0 -0.061,0.0111 0,-0.0111 0.0222,-0.006 0.0111,-0.006 0.0166,-0.006 0.0111,-0.0111 0.0166,0 0.0111,-0.006 0.0166,-0.006 0.006,-0.006 0.0222,-0.0111 0.0111,-0.006 0.0166,-0.006 0.0111,-0.006 0.0111,-0.0111 0.0111,-0.0111 0.0166,-0.006 0.0111,0 0.0166,-0.006 0.0166,-0.0111 0.0166,-0.006 0.0222,-0.006 0.006,-0.006 0.0222,-0.0111 0.006,-0.006 0.0222,-0.006 0.0111,0 0.0166,-0.006 0.0111,-0.0111 0.0166,-0.006 0.0111,-0.006 0.0166,-0.006 0.0111,-0.0111 0.0222,-0.006 0.0222,-0.006 0.0111,-0.006 0.0166,0 0.0111,-0.0111 0.0166,-0.006 0.0166,-0.006 0.0166,-0.006 0.0111,-0.0111 0.0166,-0.006 0.0222,-0.006 0.0111,-0.006 0.0166,-0.0111 0.0111,-0.006 0.0222,-0.006 0.0166,-0.006 0.0166,-0.0111 0.0166,-0.006 0.0166,-0.006 0.0166,-0.006 0.0111,-0.0111 0.0166,-0.006 0.0222,-0.006 0.0111,-0.006 0.0166,-0.0111 0.0222,-0.006 0.0111,-0.006 0.0166,-0.006 0.0166,-0.0222 0.0166,-0.006 0.0111,-0.006 0.0277,-0.0111 0.0166,-0.006 0.0166,-0.006 0.0166,-0.006 0.0222,-0.0166 0.0111,-0.006 0.0166,-0.006 0.0222,-0.0111 0.0111,-0.0111 0.0222,-0.006 0.0111,-0.0111 0.0222,-0.0111 0.0166,-0.006 0.0166,-0.0111 0.0222,-0.0111 0.0111,-0.006 0.0222,-0.0111 0.0166,-0.0111 0.0166,-0.006 0.0166,-0.0111 0.006,0 0,0.0111 0.006,0 0.0111,0.006 0.006,0 0,0.006 0.006,0 0.0222,-0.0554 0.0166,-0.006 0.0111,-0.0166 0.0222,-0.0166 0.0111,-0.0111 0.0277,-0.0111 0.0166,-0.006 0.0166,-0.0166 0.0166,-0.0111 0.0222,-0.0111 0.0111,-0.0111 0.0166,-0.0166 0.0222,-0.006 0.0166,-0.0111 0.0166,-0.0166 0.0222,-0.006 0.0111,-0.0166 0.0166,-0.0111 0.0222,-0.0166 0.0166,-0.006 0.0222,-0.0166 0.0111,-0.0111 0.0166,-0.006 0.0166,-0.0166 0.0166,-0.0111 0.0222,-0.0166 0.0111,-0.0111 0.0222,-0.0166 0.0166,-0.0111 0.0166,-0.006 0.0166,-0.0166 0.0277,-0.006 0.0111,-0.0166 0.0222,-0.0111 0.0111,-0.0111 0.0166,-0.0111 0.0222,-0.006 0.006,-0.0111 0.006,-0.006 0.0111,-0.0111 0.0111,-0.0222 0.0166,-0.0166 0.006,-0.0166 0.0111,-0.0222 0.0111,-0.0222 0.0111,-0.0166 0.006,-0.0166 0.0166,-0.0166 0.006,-0.0166 0.0166,-0.0166 0.0111,-0.0222 0.0111,-0.0111 0.0111,-0.0222 0.0111,-0.0111 0.006,-0.0222 0.0111,-0.0166 0.0111,-0.0277 0.006,-0.0111 0.0111,-0.0222 0.0111,-0.0111 0.0111,-0.0222 0.006,-0.0166 0.0111,-0.0166 0.0111,-0.0166 0.006,-0.0222 0.006,-0.0111 0.006,-0.0222 0.0111,-0.0166 0.006,-0.0166 0.006,-0.0277 0.006,-0.0222 0.0111,-0.0111 0.006,-0.0166 0.006,-0.0222 0,-0.0111 0.006,-0.0166 0.0111,-0.0222 0,-0.0111 0.006,-0.0166 0.006,-0.0166 0,-0.0166 0.0111,-0.0111 0,-0.0277 0.0111,-0.0166 0,-0.0111 0.006,-0.0222 0,-0.0166 0.006,-0.0166 0,-0.0166 0.006,-0.0111 0,-0.0222 0.0111,-0.0166 0,-0.0111 0.006,-0.0166 0.006,-0.0111 0,-0.0277 0,-0.0166 0.006,-0.0111 0,-0.006 0.0111,-0.0111 0,-0.0111 0,-0.0166 0.006,-0.0166 0.006,-0.0166 0,-0.0111 0.006,-0.0166 0.0111,-0.0166 0,-0.0111 0.006,-0.0166 0.006,-0.0111 0,-0.0166 0.0111,-0.0166 0.006,-0.0222 0,-0.0111 0.006,-0.0166 0.006,-0.0166 0.0111,-0.0111 0.006,-0.0166 0.006,-0.0111 0,-0.0166 0.006,-0.0111 0.0111,-0.0166 0.006,-0.006 0,-0.006 0.006,-0.0166 0.006,-0.0111 0.0111,-0.0166 0.006,-0.0111 0.006,-0.0111 0.006,-0.0111 0.0111,-0.0222 0.0166,-0.0111 0.006,-0.006 0.0111,-0.0166 0.006,-0.0111 0.0111,-0.0166 0.0111,-0.006 0.006,-0.0166 0.0111,-0.0111 0.0166,-0.0166 0.0166,-0.0111 0.0111,-0.0166 0.006,-0.0111 0.0166,-0.0111 0.0111,-0.0111 0.0166,-0.0166 0.0111,-0.0111 0.0222,-0.006 0.0166,-0.0166 0,-0.006 0.006,-0.0166 0.006,0 0.0222,-0.0111 0.0166,-0.0166 0.0166,-0.006 0.0111,-0.0111 0.0222,-0.0166 0.0222,-0.006 0.0166,-0.0166 0.0166,-0.0111 0.0166,-0.0166 0.0222,-0.006 0.0166,-0.0111 0.0166,-0.0166 0.0222,-0.0166 0.0222,-0.0111 0.0222,-0.006 0.0166,-0.0166 0.0166,-0.0111 0.0222,-0.0166 0.0222,-0.0166 0.0166,-0.0111 0.006,-0.006 0.006,-0.006 0.006,-0.0166 0.0111,-0.006 0.006,-0.0111 0,-0.0166 -0.006,-0.0222 -0.0111,-0.0111 -0.006,-0.0111 -0.006,-0.006 -0.006,-0.006 -0.0166,-0.006 -0.0111,-0.0111 -0.0111,-0.006 -0.0111,0 -0.0166,-0.006 -0.0111,-0.006 -0.0166,0 -0.0111,0 -0.0222,-0.006 -0.0277,-0.0111 -0.0111,0 -0.0222,-0.006 -0.0222,0 -0.0277,0 -0.0222,-0.006 -0.0277,0 -0.0222,0 -0.0277,-0.006 -0.0333,0 -0.0277,0 -0.0111,-0.0111 -0.0166,0 -0.0111,0 -0.0222,0 -0.0111,0 -0.0166,-0.006 -0.0166,0 -0.0166,0 -0.0166,0 -0.0222,0 -0.0111,0 -0.0166,-0.006 -0.0222,0 -0.0222,0 -0.0166,0 -0.0166,-0.006 -0.0166,0 -0.0222,0 -0.0166,0 -0.0222,0 -0.0166,-0.0111 -0.0222,0 -0.0166,0 -0.0222,0 -0.0277,0 -0.0222,-0.006 -0.0166,0 -0.0222,0 -0.0222,0 -0.0222,0 -0.0222,0 -0.0166,0 -0.0222,0 -0.0222,0 -0.0222,0 -0.0222,0 -0.0277,0 -0.0222,0 -0.0222,0 -0.0222,0 -0.0222,0 -0.0277,0 -0.0166,0 -0.0222,0 -0.0222,0 -0.0333,0 -0.0222,0 -0.0166,0 -0.0222,0.006 -0.0277,0 -0.0222,0 -0.0277,0.0111 -0.0222,0 -0.0222,0 -0.0166,0.006 -0.0333,0.006 -0.0222,0 -0.0222,0.006 -0.0277,0 -0.0222,0.0111 -0.0222,0.006 -0.0277,0.006 -0.0166,0 -0.0222,0.006 -0.0222,0.0111 -0.0277,0.006 -0.0166,0.006 -0.0222,0.0166 -0.0222,0.006 -0.0222,0.006 -0.0222,0.006 -0.006,0.0111 -0.006,-0.0111 -0.0166,0.0166 -0.0111,0.006 -0.0222,0.0166 -0.0222,0.006 -0.0222,0.006 -0.0222,0.0166 -0.0166,0.0111 -0.0166,0.0166 -0.0222,0.006 -0.0222,0.0111 -0.0222,0.0222 -0.0111,0.0111 -0.0222,0.0166 -0.0222,0.0166 -0.0111,0.0111 -0.0222,0.0166 -0.0277,0.0166 -0.0111,0.0166 -0.0222,0.0111 -0.0166,0.0166 -0.0166,0.0111 -0.0166,0.0222 -0.0222,0.0166 -0.0111,0.0222 -0.0222,0.0111 -0.0166,0.0277 -0.0111,0.0111 -0.0222,0.0222 -0.0111,0.0166 -0.0166,0.0166 -0.0166,0.0166 -0.0222,0.0222 -0.0166,0.0166 -0.0111,0.0222 -0.0166,0.0166 -0.0111,0.0222 -0.0166,0.0222 -0.0111,0.0222 -0.0166,0.0222 -0.0111,0.0222 -0.0166,0.0166 -0.0111,0.0222 -0.0166,0.0222 -0.006,0.0222 -0.0166,0.0277 -0.0111,0.0222 -0.0222,0.0166 -0.006,0.0333 -0.0111,0.0222 -0.0166,0.0222 -0.006,0.0277 -0.0166,0.0222 -0.0111,0.0277 -0.006,0.0166 -0.0166,0.0333 -0.006,0.0277 -0.0166,0.0222 -0.006,0.0277 -0.0166,0.0222 -0.006,0.0277 -0.0111,0.0277 -0.0111,0.0222 -0.0277,-0.54869 -0.0111,0.0166 0.0111,-0.0388 0,0.0222 0.0166,-0.006 0.0222,-0.0222 0.0166,-0.0222 0.0166,-0.0333 0.0222,-0.0166 0.0166,-0.0222 0.0166,-0.0277 0.0166,-0.0277 0.0111,-0.0222 0.0166,-0.0277 0.0111,-0.0277 0.0222,-0.0277 0.006,-0.0333 0.006,-0.0277 0.0166,-0.0388 0.006,-0.0277 0.006,-0.0277 0.006,-0.0333 0,-0.0277 0.0111,-0.0388 0.006,-0.0388 0,-0.0277 0.006,-0.0333 0,-0.0333 0,-0.0222 0.006,-0.006 0.0443,-0.0831 0.0499,-0.072 0.0333,-0.072 0.0388,-0.0776 0.0277,-0.0776 0.0222,-0.0665 0.0222,-0.0831 0.0222,-0.072 0.006,-0.0665 0.0166,-0.0831 0,-0.072 0.006,-0.0665 -0.006,-0.072 0,-0.0776 -0.0111,-0.0665 -0.0111,-0.072 -0.0166,-0.072 -0.0111,-0.0721 -0.0166,-0.061 -0.0222,-0.0776 -0.0166,-0.0665 -0.0333,-0.0665 -0.0277,-0.0665 -0.0277,-0.072 -0.0333,-0.061 -0.0277,-0.061 -0.0333,-0.072 -0.0277,-0.061 -0.0333,-0.061 -0.28266,-0.55977 -0.006,-0.0166 -0.0111,-0.0222 -0.006,-0.0222 -0.006,-0.0111 -0.0111,-0.0222 -0.006,-0.0111 -0.006,-0.0222 -0.006,-0.0166 -0.0166,-0.0111 -0.006,-0.0166 -0.006,-0.0166 -0.0166,-0.0222 -0.006,-0.0166 -0.006,-0.0111 -0.0166,-0.006 -0.006,-0.0166 -0.0166,-0.0111 -0.006,-0.0166 -0.0111,-0.006 -0.0111,-0.0166 -0.006,-0.0111 -0.0111,-0.006 -0.0166,-0.0111 -0.0111,-0.0111 -0.0166,-0.006 -0.006,-0.0166 -0.006,-0.006 -0.0166,-0.0166 -0.006,-0.006 -0.0166,-0.0166 -0.006,-0.006 -0.0111,-0.006 -0.0388,0 z m -1.19714,7.79247 -0.0831,-0.072 -0.76484,0.80917 0.19398,-0.0721 -0.0333,0.17181 0.68725,-0.83689 z m 1.21931,-5.52013 0.0222,0.0554 c -0.002,-0.009 -0.005,-0.0298 0,-0.0554 l 0.006,0.0443 0,0.0111 -0.0111,0.072 -0.0166,-0.0554 0.0222,-0.0111 0,-0.006 -0.0222,0.006 0,-0.0277 0,-0.0333 z m 2.46632,3.11477 0.0222,0.0333 0.0222,0.0277 -0.0166,0.0166 -0.006,-0.0443 -0.0332,0.0222 -0.0111,-0.0166 0.0222,-0.0388 z m -5.18205,0.0388 0,0.0222 -0.0166,-0.0166 0.0166,-0.006 z m -0.0443,0.0166 0,0.0166 -0.0111,-0.0111 0.0111,-0.006 z m 2.67693,0.0554 0.0111,0.0388 0,0.0166 -0.006,-0.0166 -0.006,-0.0111 0,-0.0277 z m 0.006,0.72604 0.006,0 0,0.0111 0.0111,0.0222 -0.0222,0 0.006,-0.0222 0,-0.0111 z m 2.64922,0.63183 0.0333,0.006 0.0222,0.0222 0.0166,0.0333 -0.13301,-0.0222 0.0333,-0.0166 0.0277,-0.0222 z m -5.37603,0.0222 0.0831,0.0499 0.0277,0.0222 -0.15519,0.0222 0.0277,-0.0776 0.0166,-0.0166 z m 1.34678,0.60965 0.0111,0 0.0111,0.0222 -0.0222,-0.0222 z m 0.0665,0.11639 -1.10846,0.9311 0.2882,-0.0665 0.88122,-0.78701 -0.061,-0.0776 z m 0.41567,0.39904 -0.88123,1.75691 -0.0831,0.47664 0.27711,-0.36579 0.80918,-1.77908 -0.12193,-0.0887 z m 0.1441,0.10531 -0.7205,1.73474 0.27712,-0.23832 0.5376,-1.44654 -0.0942,-0.0499 z m 0.12193,0.061 -0.47664,1.40221 0.22724,-0.21615 0.33808,-1.14726 -0.0887,-0.0388 z"
       id="path3782"
       inkscape:connector-curvature="0" />
    <g
       id="g10090"
       transform="translate(0,-66.256933)">
      <path
         id="path10070"
         style="fill:#000000;fill-opacity:1;fill-rule:evenodd;stroke:none"
         d="m -128.60591,-271.92599 5.95616,3.43881 5.97794,3.45133 c 0.38265,0.27249 0.53648,0.63802 0.53648,0.96639 l 0,6.86544 0,6.86088 c 0.006,0.3296 -0.15323,0.74798 -0.58257,0.99756 l -5.93185,3.42471 -5.90786,3.41092 c -0.25718,0.11928 -0.63876,0.31391 -1.2073,0.003 l -5.91341,-3.41413 -5.9937,-3.46042 c -0.29639,-0.22026 -0.53684,-0.48921 -0.52072,-1.06632 l 0,-6.7564 0,-6.82179 c -0.0359,-0.67381 0.54323,-1.02717 0.59076,-1.04138 l 5.92366,-3.42 5.975,-3.44968 c 0.55086,-0.27645 0.97719,-0.0505 1.09741,0.0109 z"
         inkscape:connector-curvature="0"
         sodipodi:nodetypes="ccccccccccccccccccc" />
      <path
         sodipodi:nodetypes="ccccccccccccccccccc"
         inkscape:connector-curvature="0"
         style="fill:#ff0000;fill-opacity:1;fill-rule:evenodd;stroke:none"
         d="m -131.62181,-269.20115 -0.0914,1.12613 -2.42067,0.005 -0.0289,17.02648 1.57849,1.52074 0.0241,0.72667 0.85661,1.41488 0.005,0.96249 2.5073,2.27148 2.5121,-2.2763 0.0192,-0.95767 0.88549,-1.44856 -0.0241,-0.70742 1.63624,-1.51113 -0.0289,-17.02647 -2.48804,0.0385 -0.077,-1.12131 -4.8654,-0.0433 z"
         id="path10072" />
      <path
         style="fill:#000000;fill-opacity:1;stroke:none"
         d="m -129.18637,-264.39795 -0.0111,0.006 -0.0166,0.006 -0.0111,0.0166 -0.0111,0.006 -0.0111,0.006 -0.006,0.0166 -0.0166,0.006 -0.0111,0.0166 -0.0111,0.006 -0.0111,0.0111 -0.006,0.0111 -0.0166,0.0111 -0.0111,0.0111 -0.006,0.0166 -0.0111,0.0166 -0.0111,0.006 -0.006,0.0111 -0.0111,0.0166 -0.0111,0.006 -0.006,0.0166 -0.0111,0.0111 -0.0111,0.0166 -0.006,0.0111 -0.0111,0.0166 -0.006,0.0111 -0.0166,0.0166 -0.006,0.0111 -0.006,0.0222 -0.0166,0.0166 -0.006,0.0222 -0.006,0.0166 -0.0166,0.0222 -0.006,0.0166 -0.0111,0.0166 -0.0222,0.0222 -0.006,0.0111 -0.0166,0.0222 -0.006,0.0166 -0.0111,0.0166 -0.0111,0.0222 -0.0111,0.0166 -0.006,0.0111 -0.0166,0.0277 -0.006,0.0111 -0.006,0.0222 -0.0166,0.0166 -0.006,0.0222 -0.0166,0.0111 -0.006,0.0222 -0.006,0.0222 -0.0166,0.0111 -0.006,0.0222 -0.0166,0.0111 -0.006,0.0222 -0.006,0.0277 -0.006,0.0222 -0.0166,0.0111 -0.006,0.0222 -0.006,0.0222 -0.0222,0.0222 -0.006,0.0277 -0.006,0.0166 -0.0111,0.0222 -0.0111,0.0222 0,0.006 -0.0277,0.0776 -0.0333,0.0776 -0.0333,0.0831 -0.0277,0.0831 -0.0166,0.0831 -0.0222,0.072 -0.0277,0.0831 -0.0111,0.0831 -0.0166,0.0776 -0.006,0.0831 -0.0166,0.0776 -0.006,0.0831 0,0.0776 0,0.0665 0,0.0831 0.006,0.072 0.0166,0.072 0.006,0.0665 0.0166,0.0721 0.0111,0.072 0.0277,0.061 0.0222,0.0721 0.0277,0.061 0.0277,0.061 0.0277,0.0554 0.0333,0.061 0.0332,0.0554 0.0499,0.0499 0.0222,0.0222 0,0.0443 0,0.0388 0,0.0333 0,0.0333 0.006,0.0388 0.006,0.0333 0,0.0333 0.006,0.0277 0.0111,0.0333 0.006,0.0277 0.006,0.0277 0.006,0.0333 0.0166,0.0166 0.006,0.0277 0.0166,0.0222 0.0111,0.0222 0.0111,0.0222 0.0111,0.0222 0.0222,0.0222 0.0111,0.0166 0.0166,0.0111 0.0222,0.0166 0.0222,0.0111 0.0111,0.0111 0,-0.0277 0.0111,-0.0166 c 0.007,0.004 0.0203,0.0122 0.0277,0.0166 l -0.0111,0.0388 -0.0222,-0.006 -0.0166,1.02532 0.0388,-0.006 0,0.006 -0.0388,0 0,0.0222 -0.0166,-0.0277 -0.0166,-0.0277 -0.006,-0.0277 -0.0111,-0.0277 -0.0166,-0.0388 -0.006,-0.0277 -0.0166,-0.0277 -0.0111,-0.0333 -0.0166,-0.0277 -0.006,-0.0277 -0.0166,-0.0277 -0.0111,-0.0277 -0.006,-0.0277 -0.0166,-0.0277 -0.0111,-0.0277 -0.0111,-0.0222 -0.0111,-0.0333 -0.006,-0.0277 -0.0111,-0.0277 -0.0111,-0.0222 -0.0222,-0.0277 -0.006,-0.0166 -0.0111,-0.0277 -0.0111,-0.0277 -0.0111,-0.0222 -0.0166,-0.0333 -0.006,-0.0222 -0.0166,-0.0277 -0.006,-0.0222 -0.0111,-0.0222 -0.0166,-0.0277 -0.0111,-0.0166 -0.0111,-0.0222 -0.0111,-0.0277 -0.0166,-0.0277 -0.0111,-0.0222 -0.0166,-0.0222 -0.0111,-0.0166 -0.006,-0.0222 -0.0166,-0.0222 -0.0277,-0.0222 -0.0111,-0.0166 -0.0166,-0.0222 -0.006,-0.0166 -0.0222,-0.0166 -0.0111,-0.0277 -0.0166,-0.0222 -0.0111,-0.0166 -0.0222,-0.0166 -0.0166,-0.0166 -0.0111,-0.0222 -0.0166,-0.0111 -0.0166,-0.0222 -0.0166,-0.0111 -0.0277,-0.0222 -0.0111,-0.0166 -0.0166,-0.0111 -0.0222,-0.0222 -0.0111,-0.0222 -0.0222,-0.0111 -0.0222,-0.0166 -0.0111,-0.0166 -0.0222,-0.0166 -0.0222,-0.0111 -0.0111,-0.0166 -0.0222,-0.0166 -0.0222,-0.0111 -0.0222,-0.0166 -0.0166,-0.0111 -0.0222,-0.006 -0.0222,-0.0166 -0.0166,-0.0111 -0.0166,-0.0166 -0.0222,-0.006 -0.0166,-0.006 -0.0222,-0.0222 -0.0222,-0.006 -0.0111,-0.006 -0.0111,-0.0111 -0.0166,-0.006 -0.0277,-0.006 -0.0222,-0.006 -0.0222,-0.0166 -0.0222,-0.006 -0.0166,-0.006 -0.0222,-0.0111 -0.0222,-0.006 -0.0277,0 -0.0222,-0.006 -0.0166,-0.006 -0.0333,-0.0111 -0.0222,0 -0.0222,-0.006 -0.0277,0 -0.0222,-0.006 -0.0222,-0.006 -0.0277,0 -0.0166,0 -0.0222,-0.0111 -0.0333,0 -0.0222,0 -0.0222,-0.006 -0.0277,0 -0.0222,0 -0.0166,0 -0.0222,0 -0.0277,0 -0.0222,0 -0.0222,0 -0.0166,0 -0.0388,0 -0.0166,0 -0.0222,0 -0.0222,0 -0.0222,0 -0.0166,0 -0.0277,0 -0.0166,0 -0.0277,0 -0.0222,0 -0.0277,0 -0.0166,0 -0.0222,0 -0.0222,0 -0.0222,0.006 -0.0111,0 -0.0222,0 -0.0222,0 -0.0166,0 -0.0222,0.0111 -0.0222,0 -0.0166,0 -0.0222,0 -0.0222,0 -0.0166,0.006 -0.0166,0 -0.0166,0 -0.0222,0 -0.0166,0.006 -0.0166,0 -0.0111,0 -0.0222,0 -0.0166,0 -0.0111,0 -0.0277,0.006 -0.0166,0 -0.0111,0 -0.0166,0 -0.0111,0 -0.0166,0.0111 -0.0333,0 -0.0222,0 -0.0277,0.006 -0.0277,0 -0.0166,0 -0.0388,0.006 -0.0166,0 -0.0222,0 -0.0222,0.006 -0.0222,0 -0.0111,0.0111 -0.0222,0.006 -0.0111,0 -0.0222,0 -0.0166,0.006 -0.006,0.006 -0.0111,0 -0.0166,0.006 -0.0222,0.0111 -0.006,0.006 -0.006,0.006 -0.0166,0.006 -0.006,0.0166 -0.006,0.0111 0,0.0222 0,0.0166 0,0.0111 0.0111,0.006 0,0.0166 0.0166,0.006 0.006,0.006 0.006,0.0111 0.0166,0 0.0111,0.0111 0.0222,0.0166 0.0222,0.0111 0.0222,0.0166 0.0166,0.006 0.0166,0.0166 0.0222,0.0111 0.0166,0.0166 0.0166,0.0111 0.0222,0.006 0.0166,0.0166 0.0277,0.0166 0.0166,0.0166 0.0111,0.006 0.0222,0.0166 0.0166,0.0111 0.0166,0.006 0.0166,0.0166 0.0222,0.0166 0.0111,0.0111 0.0166,0.0166 0.0111,0.006 0.0166,0.0111 0.0111,0.0166 0.0166,0.0111 0.0111,0.0166 0.0222,0.006 0.0111,0.0166 0.0166,0.0111 0.006,0.0222 0.0166,0.0111 0.0111,0.0166 0.006,0.006 0.0111,0.0166 0.006,0.0111 0.0111,0.0166 0.0111,0.006 0.006,0.0111 0.006,0.0166 0.006,0.0111 0.0111,0.0166 0.006,0.006 0.006,0.0166 0.0166,0.0111 0,0.0166 0.006,0.0111 0.006,0.0166 0.006,0.0166 0.0111,0.0166 0.006,0.0111 0.006,0.0166 0.006,0.0166 0.0111,0.0111 0,0.0166 0.0111,0.0111 0.006,0.0166 0,0.0166 0.0111,0.0166 0.006,0.0111 0,0.0166 0.006,0.0166 0.006,0.0111 0,0.0222 0.0111,0.0111 0.006,0.0166 0,0.0166 0.006,0.0166 0,0.0111 0.006,0.0166 0,0.0166 0.0111,0.0111 0,0.0222 0.006,0.0111 0,0.0166 0.006,0.0111 0,0.0166 0.006,0.0222 0,0.0166 0.0111,0.0166 0,0.0222 0.006,0.0111 0,0.0166 0.006,0.0166 0,0.0166 0.006,0.0222 0,0.0111 0.0111,0.0166 0.006,0.0222 0,0.0111 0.006,0.0166 0.006,0.0166 0,0.0222 0.0111,0.0111 0.006,0.0222 0.006,0.0166 0,0.0111 0.006,0.0222 0.0111,0.0222 0.006,0.0222 0.006,0.0111 0.006,0.0222 0.0166,0.0111 0.006,0.0222 0.006,0.0166 0.0166,0.0222 0.006,0.0166 0.0166,0.0222 0.006,0.0111 0.006,0.0222 0.0166,0.0166 0.006,0.0166 0.0111,0.0166 0.0111,0.0222 0.006,0.0111 0.0111,0.0222 0.0111,0.0111 0.0111,0.0277 0.006,0.0166 0.0166,0.0222 0.006,0.0111 0.0166,0.0166 0.006,0.0166 0.0111,0.0222 0.0166,0.0166 0.006,0.0166 0.0166,0.0166 0.006,0.0222 0.0222,0.0111 0.006,0.0111 0.006,0.006 0.0166,0.006 0.0166,0.0222 0.0166,0.006 0.0111,0.0111 0.0222,0.0166 0.0166,0.006 0.0166,0.0166 0.0166,0.006 0.0222,0.0111 0.0111,0.0166 0.0166,0.0111 0.0277,0.0111 0.0111,0.0111 0.0222,0.0166 0.0111,0.006 0.0222,0.0166 0.0166,0.0111 0.0166,0.006 0.0166,0.0166 0.0222,0.0111 0.0111,0.0166 0.0166,0.0111 0.0166,0.0166 0.0166,0.0111 0.0222,0.006 0.0166,0.0166 0.0222,0.0111 0.0166,0.0111 0.0166,0.0111 0.0166,0.0166 0.0222,0.006 0.0111,0.0166 0.0222,0.006 0.0111,0.0111 0.0222,0.0166 0.006,0.006 0.0333,0.0554 0.006,-0.006 0.006,0 0,-0.006 0.006,0 0.0166,0 0,-0.0111 0.006,0 0.0111,0.0111 0.0166,0.006 0.0222,0.0111 0.0111,0.0111 0.0222,0.006 0.0111,0.0166 0.0222,0.0111 0.0166,0.006 0.0166,0.0166 0.0166,0.006 0.0166,0.006 0.0166,0.0166 0.0166,0.006 0.0277,0.006 0.0111,0.006 0.0222,0.0166 0.0111,0.006 0.0166,0.006 0.0222,0.0111 0.0111,0.006 0.0166,0.006 0.0166,0.006 0.0166,0.0166 0.0222,0.006 0.0111,0.006 0.0166,0.0111 0.0277,0.006 0.0111,0.006 0.0166,0.006 0.0111,0.0111 0.0222,0.006 0.0111,0.006 0.0166,0.006 0.0222,0.0111 0.0111,0.006 0.0166,0.006 0.0111,0.006 0.0166,0.0111 0.0222,0.006 0.0111,0.006 0.0166,0.0111 0.0166,0.0111 0.0222,0.006 0.0111,0.006 0.0166,0.006 0.0111,0.0111 0.0166,0.006 0.0222,0 0.0111,0.006 0.0166,0.006 0.0111,0.0111 0.0166,0.006 0.0111,0.006 0.0222,0.006 0.0166,0.0111 0.0111,0.006 0.0222,0 0.0111,0.006 0.0166,0.006 0.0111,0.0111 0.0166,0.006 0.0111,0.006 0.0166,0.006 0.0111,0.006 0.0166,0.0111 0.0111,0.006 0.0166,0 0.0111,0.006 0.0166,0.006 0.0111,0.0111 0.0166,0.006 0.0111,0.006 0.0222,0.006 0.0111,0.0111 0.0166,0.006 0.0111,0.006 0.0166,0.006 0.0111,0 0.0166,0.0111 0.0166,0.006 0.0111,0.006 0.0166,0.006 -0.0887,0 -0.0887,0 -0.0887,0 -0.0831,-0.006 -0.0942,-0.006 -0.0887,-0.0166 -0.0887,-0.006 -0.0831,-0.0111 -0.0831,-0.0222 -0.0887,-0.0166 -0.0831,-0.0166 -0.0776,-0.0222 -0.0887,-0.0222 -0.0776,-0.0277 -0.0887,-0.0222 -0.0776,-0.0388 -0.0776,-0.0277 -0.0776,-0.0277 -0.0776,-0.0333 -0.0776,-0.0388 -0.0831,-0.0388 -0.072,-0.0443 -0.072,-0.0388 -0.0776,-0.0443 -0.0776,-0.0388 -0.0665,-0.0499 -0.0831,-0.0443 -0.072,-0.0499 -0.0665,-0.0499 -0.072,-0.0554 -0.0776,-0.0499 -0.0554,0.0277 -0.061,0.38796 -0.32699,-0.0942 0.12193,-0.22169 -0.0166,-0.0499 -0.006,-0.006 0,-0.0111 -0.006,-0.006 -0.0111,0 -0.006,-0.006 -0.006,-0.006 -0.0111,-0.0111 -0.006,0 -0.006,-0.006 -0.0111,-0.006 -0.0111,-0.006 -0.006,0 -0.006,-0.0111 -0.006,-0.006 -0.0111,-0.006 -0.0111,0 -0.006,-0.006 -0.0111,-0.0111 -0.006,-0.006 -0.006,0 -0.006,-0.0111 -0.0166,-0.006 -0.006,0 -0.006,-0.0111 -0.0166,-0.006 -0.006,-0.006 -0.006,0 -0.0166,-0.006 -0.006,-0.0111 -0.006,-0.006 -0.0166,0 -0.006,-0.006 0.0111,0.0554 -0.006,0 -0.006,0 -0.006,-0.0111 -0.0166,0 -0.006,0 0,-0.006 0.0277,-0.0388 -0.0554,0.0111 -0.51543,0.83135 -0.0166,0.0388 -0.0166,0.0277 -0.0111,0.0277 -0.0166,0.0388 -0.0222,0.0277 -0.006,0.0222 -0.0111,0.0277 -0.0111,0.0277 -0.006,0.0277 -0.006,0.0222 0,0.0166 -0.0111,0.0277 0,0.0277 0,0.0277 0,0.0222 0,0.0222 0.0111,0.0277 0.006,0.0222 0.006,0.0166 0,0.0222 0.0166,0.0222 0.006,0.0222 0.006,0.0222 0.0166,0.0333 0.0111,0.0166 0.0166,0.0222 0.0111,0.0222 0.0166,0.0277 0.0111,0.0222 0.0166,0.0277 0.0111,0.0166 0.0222,0.0333 0.0554,0.072 0.0499,0.072 0.0499,0.0554 0.0443,0.0554 0.0554,0.0333 0.0554,0.0333 0.0499,0.0388 0.0499,0.0222 0.0499,0.0166 0.0554,0.006 0.0554,0.006 0.0443,-0.006 0.0443,-0.0111 0.0554,-0.0166 0.0499,-0.0333 0.0388,-0.0332 0.0443,-0.0333 0.0333,-0.0499 0.0443,-0.0499 0.0111,-0.0222 0.10531,0.0277 0.2882,-0.0554 0.0554,0.0333 0.0776,0.0388 -0.33808,0.0831 0.19398,0.0333 -0.11084,0.14964 0.46001,-0.16072 0.0443,0.0111 -0.60411,0.22724 -0.19398,0.26603 0.96436,-0.41567 0.0388,0.0111 -1.03641,0.50989 -0.19398,0.29375 1.38003,-0.74821 0.0333,0.0166 0.0222,0.006 -1.4798,0.85905 -0.31591,0.327 0.43784,-0.11085 1.55185,-1.01424 0.0443,0.0166 -1.4798,1.03087 0.35471,-0.0333 1.1916,-0.92556 -0.0166,-0.0333 0.0554,0.0831 0.0665,0.0776 0.0942,0.11639 0.0332,0.0388 -0.0111,-0.006 -0.67616,1.00315 -0.0166,0.31037 0.75375,-1.26364 0.0554,0.0499 -0.79255,1.35232 -0.0111,0.36579 0.88123,-1.6516 -0.0499,-0.0499 0.1441,0.0998 0.16073,0.0998 0.16073,0.061 -0.27712,1.08629 0.11639,-0.1441 0.061,0.1829 0.18289,-1.09183 0.0554,0.0222 -0.19399,1.19713 0.13302,0.27712 0.14964,-1.46871 0.0443,0.0111 -0.13301,1.56293 0.1441,0.33254 0.072,-1.88993 0.0388,0 -0.0388,1.98415 0.1053,0.46001 0.11639,-0.46001 -0.0222,-1.97861 0.0222,-0.006 0.072,1.88993 0.14964,-0.33254 -0.12193,-1.56293 -0.0388,0 0.0665,-0.0111 0.15519,1.49088 0.11638,-0.29928 -0.17735,-1.19714 0.0721,-0.0277 -0.0388,0.0277 0.20507,1.08075 0.0443,-0.19398 0.13301,0.13301 -0.2882,-1.05303 0.0388,-0.0222 0.34362,1.1528 0.23832,0.21615 -0.50989,-1.39666 0.0443,-0.0222 0.55423,1.45762 0.27157,0.22724 -0.73713,-1.71257 -0.0554,0.0166 0.0998,-0.0443 0.78701,1.77353 0.30483,0.36579 -0.11085,-0.48218 -0.85906,-1.73474 0.0277,-0.0166 0.87569,1.64052 -0.0166,-0.3658 -0.77038,-1.34677 0.0388,-0.0277 0.77038,1.24148 -0.0222,-0.31037 -0.68725,-0.99207 0.0333,-0.0333 0.70387,0.82581 -0.0665,-0.17736 0.16627,0.0277 -0.73158,-0.75376 0.0111,-0.0222 0.90894,0.76484 0.29374,0.0332 -1.14171,-0.87014 0.0111,-0.0111 0.0166,-0.0333 1.22485,0.88122 0.33808,0.0111 -1.51305,-0.97545 0.0222,-0.0333 1.60727,0.99761 0.43784,0.11085 -0.32146,-0.327 -1.52967,-0.85351 0.061,-0.0111 1.41883,0.7593 -0.18843,-0.31037 -1.08075,-0.50435 0.0277,-0.0166 0.0277,-0.006 0.98099,0.42121 -0.19398,-0.26049 -0.63737,-0.22723 0.0831,-0.0443 0.0111,0 0.50989,0.1441 -0.16073,-0.12747 0.17181,-0.072 -0.30482,-0.0554 0.0443,-0.0166 0.0831,-0.0499 0.0222,-0.0166 0.27712,0.0443 0.13855,-0.0554 0.0166,0.0166 0.0499,0.0388 0.0443,0.0222 0.0499,0.0222 0.0499,0.0166 0.0499,0.006 0.0499,0 0.0499,-0.0166 0.0499,-0.0111 0.0499,-0.0222 0.0499,-0.0388 0.0554,-0.0333 0.0554,-0.0443 0.0499,-0.0499 0.0499,-0.0554 0.0443,-0.0665 0.0499,-0.0776 0.0277,-0.0277 0.0166,-0.0222 0.0111,-0.0277 0.0166,-0.0222 0.0111,-0.0333 0.0166,-0.0166 0.0111,-0.0222 0.0166,-0.0222 0.0111,-0.0222 0.006,-0.0277 0.0166,-0.0222 0.006,-0.0166 0,-0.0222 0.006,-0.0222 0.0111,-0.0277 0.006,-0.0277 0,-0.0222 0,-0.0166 0,-0.0222 0,-0.0277 0,-0.0222 -0.006,-0.0277 -0.0111,-0.0222 -0.006,-0.0333 -0.006,-0.0277 -0.0166,-0.0277 -0.006,-0.0277 -0.0111,-0.0222 -0.0166,-0.0333 0.0554,0.0277 -0.1053,-0.16626 -0.006,-0.0111 -0.0222,0.0277 -0.0388,-0.0554 0.006,0 0.0277,0.0111 0.0166,0.006 -0.4988,-0.80363 0.006,0 -0.0222,-0.0332 -0.0277,0.0222 0.0166,0.0333 -0.0222,0.006 -0.006,0 0.0111,-0.0388 -0.006,0 -0.0166,0.006 -0.006,0.006 -0.0111,0 -0.0111,0.006 -0.0111,0.0111 -0.006,0.006 -0.0111,0.006 -0.006,0 -0.0111,0.006 -0.0111,0.0111 -0.006,0.006 -0.006,0 -0.0166,0.006 -0.006,0 -0.006,0.006 -0.0111,0.0111 -0.006,0.006 -0.006,0.006 -0.006,0 -0.0166,0.006 -0.006,0.0111 -0.006,0.006 -0.006,0 -0.0111,0.006 -0.006,0.006 -0.006,0.0111 -0.006,0 -0.0111,0.006 -0.006,0.006 -0.006,0.006 -0.006,0 -0.0222,0.0222 0.0111,0.0277 -0.006,0.0554 0.11085,0.2217 0.0277,-0.006 0.0222,0.0443 -0.0277,0.0111 -0.0277,-0.0499 -0.31037,0.0998 -0.0388,-0.18844 -0.0554,-0.0277 -0.0721,0.0499 -0.072,0.061 -0.0665,0.0499 -0.0776,0.0443 -0.0776,0.0443 -0.0665,0.0499 -0.0776,0.0443 -0.0776,0.0443 -0.0776,0.0388 -0.0665,0.0388 -0.0831,0.0388 -0.0776,0.0388 -0.0776,0.0388 -0.0831,0.0277 -0.0776,0.0277 -0.0831,0.0333 -0.0776,0.0222 -0.0776,0.0277 -0.0887,0.0222 -0.0776,0.0222 -0.0831,0.0166 -0.0887,0.0222 -0.0887,0.0222 -0.0831,0.0111 -0.0887,0.006 -0.0887,0.0166 -0.0831,0.006 -0.0998,0.006 -0.0831,0 -0.061,0.0111 0,-0.0111 0.0222,-0.006 0.0111,-0.006 0.0166,-0.006 0.0111,-0.0111 0.0166,0 0.0111,-0.006 0.0166,-0.006 0.006,-0.006 0.0222,-0.0111 0.0111,-0.006 0.0166,-0.006 0.0111,-0.006 0.0111,-0.0111 0.0111,-0.0111 0.0166,-0.006 0.0111,0 0.0166,-0.006 0.0166,-0.0111 0.0166,-0.006 0.0222,-0.006 0.006,-0.006 0.0222,-0.0111 0.006,-0.006 0.0222,-0.006 0.0111,0 0.0166,-0.006 0.0111,-0.0111 0.0166,-0.006 0.0111,-0.006 0.0166,-0.006 0.0111,-0.0111 0.0222,-0.006 0.0222,-0.006 0.0111,-0.006 0.0166,0 0.0111,-0.0111 0.0166,-0.006 0.0166,-0.006 0.0166,-0.006 0.0111,-0.0111 0.0166,-0.006 0.0222,-0.006 0.0111,-0.006 0.0166,-0.0111 0.0111,-0.006 0.0222,-0.006 0.0166,-0.006 0.0166,-0.0111 0.0166,-0.006 0.0166,-0.006 0.0166,-0.006 0.0111,-0.0111 0.0166,-0.006 0.0222,-0.006 0.0111,-0.006 0.0166,-0.0111 0.0222,-0.006 0.0111,-0.006 0.0166,-0.006 0.0166,-0.0222 0.0166,-0.006 0.0111,-0.006 0.0277,-0.0111 0.0166,-0.006 0.0166,-0.006 0.0166,-0.006 0.0222,-0.0166 0.0111,-0.006 0.0166,-0.006 0.0222,-0.0111 0.0111,-0.0111 0.0222,-0.006 0.0111,-0.0111 0.0222,-0.0111 0.0166,-0.006 0.0166,-0.0111 0.0222,-0.0111 0.0111,-0.006 0.0222,-0.0111 0.0166,-0.0111 0.0166,-0.006 0.0166,-0.0111 0.006,0 0,0.0111 0.006,0 0.0111,0.006 0.006,0 0,0.006 0.006,0 0.0222,-0.0554 0.0166,-0.006 0.0111,-0.0166 0.0222,-0.0166 0.0111,-0.0111 0.0277,-0.0111 0.0166,-0.006 0.0166,-0.0166 0.0166,-0.0111 0.0222,-0.0111 0.0111,-0.0111 0.0166,-0.0166 0.0222,-0.006 0.0166,-0.0111 0.0166,-0.0166 0.0222,-0.006 0.0111,-0.0166 0.0166,-0.0111 0.0222,-0.0166 0.0166,-0.006 0.0222,-0.0166 0.0111,-0.0111 0.0166,-0.006 0.0166,-0.0166 0.0166,-0.0111 0.0222,-0.0166 0.0111,-0.0111 0.0222,-0.0166 0.0166,-0.0111 0.0166,-0.006 0.0166,-0.0166 0.0277,-0.006 0.0111,-0.0166 0.0222,-0.0111 0.0111,-0.0111 0.0166,-0.0111 0.0222,-0.006 0.006,-0.0111 0.006,-0.006 0.0111,-0.0111 0.0111,-0.0222 0.0166,-0.0166 0.006,-0.0166 0.0111,-0.0222 0.0111,-0.0222 0.0111,-0.0166 0.006,-0.0166 0.0166,-0.0166 0.006,-0.0166 0.0166,-0.0166 0.0111,-0.0222 0.0111,-0.0111 0.0111,-0.0222 0.0111,-0.0111 0.006,-0.0222 0.0111,-0.0166 0.0111,-0.0277 0.006,-0.0111 0.0111,-0.0222 0.0111,-0.0111 0.0111,-0.0222 0.006,-0.0166 0.0111,-0.0166 0.0111,-0.0166 0.006,-0.0222 0.006,-0.0111 0.006,-0.0222 0.0111,-0.0166 0.006,-0.0166 0.006,-0.0277 0.006,-0.0222 0.0111,-0.0111 0.006,-0.0166 0.006,-0.0222 0,-0.0111 0.006,-0.0166 0.0111,-0.0222 0,-0.0111 0.006,-0.0166 0.006,-0.0166 0,-0.0166 0.0111,-0.0111 0,-0.0277 0.0111,-0.0166 0,-0.0111 0.006,-0.0222 0,-0.0166 0.006,-0.0166 0,-0.0166 0.006,-0.0111 0,-0.0222 0.0111,-0.0166 0,-0.0111 0.006,-0.0166 0.006,-0.0111 0,-0.0277 0,-0.0166 0.006,-0.0111 0,-0.006 0.0111,-0.0111 0,-0.0111 0,-0.0166 0.006,-0.0166 0.006,-0.0166 0,-0.0111 0.006,-0.0166 0.0111,-0.0166 0,-0.0111 0.006,-0.0166 0.006,-0.0111 0,-0.0166 0.0111,-0.0166 0.006,-0.0222 0,-0.0111 0.006,-0.0166 0.006,-0.0166 0.0111,-0.0111 0.006,-0.0166 0.006,-0.0111 0,-0.0166 0.006,-0.0111 0.0111,-0.0166 0.006,-0.006 0,-0.006 0.006,-0.0166 0.006,-0.0111 0.0111,-0.0166 0.006,-0.0111 0.006,-0.0111 0.006,-0.0111 0.0111,-0.0222 0.0166,-0.0111 0.006,-0.006 0.0111,-0.0166 0.006,-0.0111 0.0111,-0.0166 0.0111,-0.006 0.006,-0.0166 0.0111,-0.0111 0.0166,-0.0166 0.0166,-0.0111 0.0111,-0.0166 0.006,-0.0111 0.0166,-0.0111 0.0111,-0.0111 0.0166,-0.0166 0.0111,-0.0111 0.0222,-0.006 0.0166,-0.0166 0,-0.006 0.006,-0.0166 0.006,0 0.0222,-0.0111 0.0166,-0.0166 0.0166,-0.006 0.0111,-0.0111 0.0222,-0.0166 0.0222,-0.006 0.0166,-0.0166 0.0166,-0.0111 0.0166,-0.0166 0.0222,-0.006 0.0166,-0.0111 0.0166,-0.0166 0.0222,-0.0166 0.0222,-0.0111 0.0222,-0.006 0.0166,-0.0166 0.0166,-0.0111 0.0222,-0.0166 0.0222,-0.0166 0.0166,-0.0111 0.006,-0.006 0.006,-0.006 0.006,-0.0166 0.0111,-0.006 0.006,-0.0111 0,-0.0166 -0.006,-0.0222 -0.0111,-0.0111 -0.006,-0.0111 -0.006,-0.006 -0.006,-0.006 -0.0166,-0.006 -0.0111,-0.0111 -0.0111,-0.006 -0.0111,0 -0.0166,-0.006 -0.0111,-0.006 -0.0166,0 -0.0111,0 -0.0222,-0.006 -0.0277,-0.0111 -0.0111,0 -0.0222,-0.006 -0.0222,0 -0.0277,0 -0.0222,-0.006 -0.0277,0 -0.0222,0 -0.0277,-0.006 -0.0333,0 -0.0277,0 -0.0111,-0.0111 -0.0166,0 -0.0111,0 -0.0222,0 -0.0111,0 -0.0166,-0.006 -0.0166,0 -0.0166,0 -0.0166,0 -0.0222,0 -0.0111,0 -0.0166,-0.006 -0.0222,0 -0.0222,0 -0.0166,0 -0.0166,-0.006 -0.0166,0 -0.0222,0 -0.0166,0 -0.0222,0 -0.0166,-0.0111 -0.0222,0 -0.0166,0 -0.0222,0 -0.0277,0 -0.0222,-0.006 -0.0166,0 -0.0222,0 -0.0222,0 -0.0222,0 -0.0222,0 -0.0166,0 -0.0222,0 -0.0222,0 -0.0222,0 -0.0222,0 -0.0277,0 -0.0222,0 -0.0222,0 -0.0222,0 -0.0222,0 -0.0277,0 -0.0166,0 -0.0222,0 -0.0222,0 -0.0333,0 -0.0222,0 -0.0166,0 -0.0222,0.006 -0.0277,0 -0.0222,0 -0.0277,0.0111 -0.0222,0 -0.0222,0 -0.0166,0.006 -0.0333,0.006 -0.0222,0 -0.0222,0.006 -0.0277,0 -0.0222,0.0111 -0.0222,0.006 -0.0277,0.006 -0.0166,0 -0.0222,0.006 -0.0222,0.0111 -0.0277,0.006 -0.0166,0.006 -0.0222,0.0166 -0.0222,0.006 -0.0222,0.006 -0.0222,0.006 -0.006,0.0111 -0.006,-0.0111 -0.0166,0.0166 -0.0111,0.006 -0.0222,0.0166 -0.0222,0.006 -0.0222,0.006 -0.0222,0.0166 -0.0166,0.0111 -0.0166,0.0166 -0.0222,0.006 -0.0222,0.0111 -0.0222,0.0222 -0.0111,0.0111 -0.0222,0.0166 -0.0222,0.0166 -0.0111,0.0111 -0.0222,0.0166 -0.0277,0.0166 -0.0111,0.0166 -0.0222,0.0111 -0.0166,0.0166 -0.0166,0.0111 -0.0166,0.0222 -0.0222,0.0166 -0.0111,0.0222 -0.0222,0.0111 -0.0166,0.0277 -0.0111,0.0111 -0.0222,0.0222 -0.0111,0.0166 -0.0166,0.0166 -0.0166,0.0166 -0.0222,0.0222 -0.0166,0.0166 -0.0111,0.0222 -0.0166,0.0166 -0.0111,0.0222 -0.0166,0.0222 -0.0111,0.0222 -0.0166,0.0222 -0.0111,0.0222 -0.0166,0.0166 -0.0111,0.0222 -0.0166,0.0222 -0.006,0.0222 -0.0166,0.0277 -0.0111,0.0222 -0.0222,0.0166 -0.006,0.0333 -0.0111,0.0222 -0.0166,0.0222 -0.006,0.0277 -0.0166,0.0222 -0.0111,0.0277 -0.006,0.0166 -0.0166,0.0333 -0.006,0.0277 -0.0166,0.0222 -0.006,0.0277 -0.0166,0.0222 -0.006,0.0277 -0.0111,0.0277 -0.0111,0.0222 -0.0277,-0.54869 -0.0111,0.0166 0.0111,-0.0388 0,0.0222 0.0166,-0.006 0.0222,-0.0222 0.0166,-0.0222 0.0166,-0.0333 0.0222,-0.0166 0.0166,-0.0222 0.0166,-0.0277 0.0166,-0.0277 0.0111,-0.0222 0.0166,-0.0277 0.0111,-0.0277 0.0222,-0.0277 0.006,-0.0333 0.006,-0.0277 0.0166,-0.0388 0.006,-0.0277 0.006,-0.0277 0.006,-0.0333 0,-0.0277 0.0111,-0.0388 0.006,-0.0388 0,-0.0277 0.006,-0.0333 0,-0.0333 0,-0.0222 0.006,-0.006 0.0443,-0.0831 0.0499,-0.072 0.0333,-0.072 0.0388,-0.0776 0.0277,-0.0776 0.0222,-0.0665 0.0222,-0.0831 0.0222,-0.072 0.006,-0.0665 0.0166,-0.0831 0,-0.072 0.006,-0.0665 -0.006,-0.072 0,-0.0776 -0.0111,-0.0665 -0.0111,-0.072 -0.0166,-0.072 -0.0111,-0.0721 -0.0166,-0.061 -0.0222,-0.0776 -0.0166,-0.0665 -0.0333,-0.0665 -0.0277,-0.0665 -0.0277,-0.072 -0.0333,-0.061 -0.0277,-0.061 -0.0333,-0.072 -0.0277,-0.061 -0.0333,-0.061 -0.28266,-0.55977 -0.006,-0.0166 -0.0111,-0.0222 -0.006,-0.0222 -0.006,-0.0111 -0.0111,-0.0222 -0.006,-0.0111 -0.006,-0.0222 -0.006,-0.0166 -0.0166,-0.0111 -0.006,-0.0166 -0.006,-0.0166 -0.0166,-0.0222 -0.006,-0.0166 -0.006,-0.0111 -0.0166,-0.006 -0.006,-0.0166 -0.0166,-0.0111 -0.006,-0.0166 -0.0111,-0.006 -0.0111,-0.0166 -0.006,-0.0111 -0.0111,-0.006 -0.0166,-0.0111 -0.0111,-0.0111 -0.0166,-0.006 -0.006,-0.0166 -0.006,-0.006 -0.0166,-0.0166 -0.006,-0.006 -0.0166,-0.0166 -0.006,-0.006 -0.0111,-0.006 -0.0388,0 z m -1.19714,7.79247 -0.0831,-0.072 -0.76484,0.80917 0.19398,-0.0721 -0.0333,0.17181 0.68725,-0.83689 z m 1.21931,-5.52013 0.0222,0.0554 c -0.002,-0.009 -0.005,-0.0298 0,-0.0554 l 0.006,0.0443 0,0.0111 -0.0111,0.072 -0.0166,-0.0554 0.0222,-0.0111 0,-0.006 -0.0222,0.006 0,-0.0277 0,-0.0333 z m 2.46632,3.11477 0.0222,0.0333 0.0222,0.0277 -0.0166,0.0166 -0.006,-0.0443 -0.0332,0.0222 -0.0111,-0.0166 0.0222,-0.0388 z m -5.18205,0.0388 0,0.0222 -0.0166,-0.0166 0.0166,-0.006 z m -0.0443,0.0166 0,0.0166 -0.0111,-0.0111 0.0111,-0.006 z m 2.67693,0.0554 0.0111,0.0388 0,0.0166 -0.006,-0.0166 -0.006,-0.0111 0,-0.0277 z m 0.006,0.72604 0.006,0 0,0.0111 0.0111,0.0222 -0.0222,0 0.006,-0.0222 0,-0.0111 z m 2.64922,0.63183 0.0333,0.006 0.0222,0.0222 0.0166,0.0333 -0.13301,-0.0222 0.0333,-0.0166 0.0277,-0.0222 z m -5.37603,0.0222 0.0831,0.0499 0.0277,0.0222 -0.15519,0.0222 0.0277,-0.0776 0.0166,-0.0166 z m 1.34678,0.60965 0.0111,0 0.0111,0.0222 -0.0222,-0.0222 z m 0.0665,0.11639 -1.10846,0.9311 0.2882,-0.0665 0.88122,-0.78701 -0.061,-0.0776 z m 0.41567,0.39904 -0.88123,1.75691 -0.0831,0.47664 0.27711,-0.36579 0.80918,-1.77908 -0.12193,-0.0887 z m 0.1441,0.10531 -0.7205,1.73474 0.27712,-0.23832 0.5376,-1.44654 -0.0942,-0.0499 z m 0.12193,0.061 -0.47664,1.40221 0.22724,-0.21615 0.33808,-1.14726 -0.0887,-0.0388 z"
         id="path10074"
         inkscape:connector-curvature="0" />
    </g>
    <g
       id="g8187"
       inkscape:export-filename="C:\xampp\htdocs\dinas-pendidikan\asset\theme\blue-clouds\images\twitter.png"
       inkscape:export-xdpi="90"
       inkscape:export-ydpi="90">
      <path
         id="path7984"
         style="fill:#00aced;fill-opacity:1;fill-rule:evenodd;stroke:none"
         d="m -77.01781,-338.12768 5.93386,3.42592 5.95557,3.43841 c 0.38121,0.27148 0.53447,0.63564 0.53447,0.96277 l 0,6.83974 0,6.8352 c 0.006,0.32836 -0.15266,0.74517 -0.5804,0.99382 l -5.90964,3.41188 -5.88573,3.39816 c -0.25622,0.11883 -0.63637,0.31273 -1.20279,0.003 l -5.89126,-3.40135 -5.97126,-3.44746 c -0.29529,-0.21944 -0.53484,-0.48738 -0.51877,-1.06233 l 0,-6.73111 0,-6.79625 c -0.0357,-0.67128 0.54119,-1.02332 0.58854,-1.03748 l 5.90149,-3.40719 5.95263,-3.43677 c 0.5488,-0.27541 0.97353,-0.0503 1.09329,0.0109 z"
         inkscape:connector-curvature="0"
         sodipodi:nodetypes="ccccccccccccccccccc" />
      <path
         style="fill:#ffffff;fill-opacity:1"
         d="m -81.098354,-316.40243 c -1.803059,-0.0584 -3.490531,-0.5661 -5.026513,-1.51238 -0.11493,-0.0708 -0.13729,-0.0882 -0.12668,-0.0988 0.003,-0.003 0.0423,-0.002 0.0879,0.003 0.547394,0.0542 1.050145,0.0523 1.567594,-0.006 1.134873,-0.12776 2.212425,-0.52148 3.162717,-1.15556 0.133,-0.0887 0.336022,-0.23394 0.396094,-0.28329 l 0.01981,-0.0163 -0.08762,-0.005 c -1.449138,-0.0783 -2.710091,-1.02448 -3.185464,-2.39019 -0.01331,-0.0382 -0.02419,-0.0753 -0.02419,-0.0824 0,-0.0165 0.0112,-0.0165 0.1168,0 0.380268,0.0613 0.753384,0.0601 1.143673,-0.004 0.113675,-0.0186 0.294088,-0.0577 0.289059,-0.0627 -0.0016,-0.002 -0.05438,-0.0161 -0.117012,-0.0321 -0.783562,-0.19938 -1.484471,-0.66876 -1.973271,-1.32148 -0.354717,-0.47368 -0.587121,-1.028 -0.672578,-1.60424 -0.03089,-0.20827 -0.05179,-0.558 -0.03458,-0.57873 0.0073,-0.009 0.02464,-0.002 0.129924,0.0506 0.441355,0.22094 0.908492,0.34901 1.372221,0.37623 l 0.07457,0.004 -0.05026,-0.0362 c -0.362774,-0.26147 -0.654995,-0.56312 -0.898748,-0.92775 -0.18918,-0.28298 -0.326543,-0.56484 -0.429539,-0.88136 -0.238111,-0.73175 -0.231174,-1.54279 0.0194,-2.2678 0.06091,-0.17625 0.142981,-0.36419 0.227683,-0.5214 0.05763,-0.10698 0.06463,-0.1166 0.07874,-0.10815 0.0053,0.003 0.04288,0.0455 0.08343,0.094 0.760296,0.90906 1.686108,1.68811 2.704899,2.2761 1.355989,0.7826 2.842231,1.23154 4.416393,1.33403 0.0575,0.004 0.105959,0.005 0.107713,0.004 0.0016,-0.002 -0.0032,-0.0345 -0.01128,-0.0729 -0.0847,-0.40816 -0.09453,-0.87147 -0.02744,-1.29342 0.196689,-1.23699 1.047748,-2.29298 2.219716,-2.75424 0.858604,-0.33792 1.827027,-0.32836 2.680375,0.0265 0.417135,0.17343 0.796332,0.42454 1.126463,0.74593 l 0.105703,0.10289 0.09459,-0.0196 c 0.702549,-0.14607 1.403876,-0.4138 2.061477,-0.78697 0.0452,-0.0257 0.08715,-0.0466 0.09323,-0.0466 0.01758,0 0.01364,0.0205 -0.02383,0.12393 -0.176277,0.48741 -0.446957,0.91689 -0.812223,1.28878 -0.184191,0.18753 -0.366195,0.3388 -0.575536,0.47836 -0.046,0.0307 -0.08229,0.0571 -0.08061,0.0588 0.002,0.002 0.05609,-0.005 0.120933,-0.0146 0.615464,-0.0919 1.189166,-0.25294 1.753998,-0.49245 0.07181,-0.0304 0.09909,-0.0392 0.104713,-0.0336 0.01672,0.0167 -0.263385,0.39865 -0.482813,0.65851 -0.356584,0.42229 -0.782028,0.82153 -1.2207,1.14552 l -0.05761,0.0426 0,0.42461 c 0,0.42662 -0.0037,0.50988 -0.03028,0.83139 -0.123498,1.48361 -0.590274,2.9788 -1.34397,4.3051 -0.867213,1.52603 -2.078647,2.77936 -3.521254,3.643 -1.406645,0.84212 -2.991304,1.30559 -4.731165,1.38371 -0.221498,0.01 -0.62094,0.0134 -0.814171,0.007 z"
         id="path3391"
         inkscape:connector-curvature="0" />
    </g>
    <g
       transform="matrix(3.845637,0,0,3.845637,618.97051,799.61686)"
       id="g3410">
      <path
         sodipodi:nodetypes="ccccccccccccccccccc"
         inkscape:connector-curvature="0"
         d="m -128.60591,-271.92599 5.95616,3.43881 5.97794,3.45133 c 0.38265,0.27249 0.53648,0.63802 0.53648,0.96639 l 0,6.86544 0,6.86088 c 0.006,0.3296 -0.15323,0.74798 -0.58257,0.99756 l -5.93185,3.42471 -5.90786,3.41092 c -0.25718,0.11928 -0.63876,0.31391 -1.2073,0.003 l -5.91341,-3.41413 -5.9937,-3.46042 c -0.29639,-0.22026 -0.53684,-0.48921 -0.52072,-1.06632 l 0,-6.7564 0,-6.82179 c -0.0359,-0.67381 0.54323,-1.02717 0.59076,-1.04138 l 5.92366,-3.42 5.975,-3.44968 c 0.55086,-0.27645 0.97719,-0.0505 1.09741,0.0109 z"
         style="fill:#000000;fill-opacity:1;fill-rule:evenodd;stroke:none"
         id="path3412" />
      <path
         id="path3414"
         d="m -131.62181,-269.20115 -0.0914,1.12613 -2.42067,0.005 -0.0289,17.02648 1.57849,1.52074 0.0241,0.72667 0.85661,1.41488 0.005,0.96249 2.5073,2.27148 2.5121,-2.2763 0.0192,-0.95767 0.88549,-1.44856 -0.0241,-0.70742 1.63624,-1.51113 -0.0289,-17.02647 -2.48804,0.0385 -0.077,-1.12131 -4.8654,-0.0433 z"
         style="fill:#ff0000;fill-opacity:1;fill-rule:evenodd;stroke:none"
         inkscape:connector-curvature="0"
         sodipodi:nodetypes="ccccccccccccccccccc" />
      <path
         inkscape:connector-curvature="0"
         id="path3416"
         d="m -129.18637,-264.39795 -0.0111,0.006 -0.0166,0.006 -0.0111,0.0166 -0.0111,0.006 -0.0111,0.006 -0.006,0.0166 -0.0166,0.006 -0.0111,0.0166 -0.0111,0.006 -0.0111,0.0111 -0.006,0.0111 -0.0166,0.0111 -0.0111,0.0111 -0.006,0.0166 -0.0111,0.0166 -0.0111,0.006 -0.006,0.0111 -0.0111,0.0166 -0.0111,0.006 -0.006,0.0166 -0.0111,0.0111 -0.0111,0.0166 -0.006,0.0111 -0.0111,0.0166 -0.006,0.0111 -0.0166,0.0166 -0.006,0.0111 -0.006,0.0222 -0.0166,0.0166 -0.006,0.0222 -0.006,0.0166 -0.0166,0.0222 -0.006,0.0166 -0.0111,0.0166 -0.0222,0.0222 -0.006,0.0111 -0.0166,0.0222 -0.006,0.0166 -0.0111,0.0166 -0.0111,0.0222 -0.0111,0.0166 -0.006,0.0111 -0.0166,0.0277 -0.006,0.0111 -0.006,0.0222 -0.0166,0.0166 -0.006,0.0222 -0.0166,0.0111 -0.006,0.0222 -0.006,0.0222 -0.0166,0.0111 -0.006,0.0222 -0.0166,0.0111 -0.006,0.0222 -0.006,0.0277 -0.006,0.0222 -0.0166,0.0111 -0.006,0.0222 -0.006,0.0222 -0.0222,0.0222 -0.006,0.0277 -0.006,0.0166 -0.0111,0.0222 -0.0111,0.0222 0,0.006 -0.0277,0.0776 -0.0333,0.0776 -0.0333,0.0831 -0.0277,0.0831 -0.0166,0.0831 -0.0222,0.072 -0.0277,0.0831 -0.0111,0.0831 -0.0166,0.0776 -0.006,0.0831 -0.0166,0.0776 -0.006,0.0831 0,0.0776 0,0.0665 0,0.0831 0.006,0.072 0.0166,0.072 0.006,0.0665 0.0166,0.0721 0.0111,0.072 0.0277,0.061 0.0222,0.0721 0.0277,0.061 0.0277,0.061 0.0277,0.0554 0.0333,0.061 0.0332,0.0554 0.0499,0.0499 0.0222,0.0222 0,0.0443 0,0.0388 0,0.0333 0,0.0333 0.006,0.0388 0.006,0.0333 0,0.0333 0.006,0.0277 0.0111,0.0333 0.006,0.0277 0.006,0.0277 0.006,0.0333 0.0166,0.0166 0.006,0.0277 0.0166,0.0222 0.0111,0.0222 0.0111,0.0222 0.0111,0.0222 0.0222,0.0222 0.0111,0.0166 0.0166,0.0111 0.0222,0.0166 0.0222,0.0111 0.0111,0.0111 0,-0.0277 0.0111,-0.0166 c 0.007,0.004 0.0203,0.0122 0.0277,0.0166 l -0.0111,0.0388 -0.0222,-0.006 -0.0166,1.02532 0.0388,-0.006 0,0.006 -0.0388,0 0,0.0222 -0.0166,-0.0277 -0.0166,-0.0277 -0.006,-0.0277 -0.0111,-0.0277 -0.0166,-0.0388 -0.006,-0.0277 -0.0166,-0.0277 -0.0111,-0.0333 -0.0166,-0.0277 -0.006,-0.0277 -0.0166,-0.0277 -0.0111,-0.0277 -0.006,-0.0277 -0.0166,-0.0277 -0.0111,-0.0277 -0.0111,-0.0222 -0.0111,-0.0333 -0.006,-0.0277 -0.0111,-0.0277 -0.0111,-0.0222 -0.0222,-0.0277 -0.006,-0.0166 -0.0111,-0.0277 -0.0111,-0.0277 -0.0111,-0.0222 -0.0166,-0.0333 -0.006,-0.0222 -0.0166,-0.0277 -0.006,-0.0222 -0.0111,-0.0222 -0.0166,-0.0277 -0.0111,-0.0166 -0.0111,-0.0222 -0.0111,-0.0277 -0.0166,-0.0277 -0.0111,-0.0222 -0.0166,-0.0222 -0.0111,-0.0166 -0.006,-0.0222 -0.0166,-0.0222 -0.0277,-0.0222 -0.0111,-0.0166 -0.0166,-0.0222 -0.006,-0.0166 -0.0222,-0.0166 -0.0111,-0.0277 -0.0166,-0.0222 -0.0111,-0.0166 -0.0222,-0.0166 -0.0166,-0.0166 -0.0111,-0.0222 -0.0166,-0.0111 -0.0166,-0.0222 -0.0166,-0.0111 -0.0277,-0.0222 -0.0111,-0.0166 -0.0166,-0.0111 -0.0222,-0.0222 -0.0111,-0.0222 -0.0222,-0.0111 -0.0222,-0.0166 -0.0111,-0.0166 -0.0222,-0.0166 -0.0222,-0.0111 -0.0111,-0.0166 -0.0222,-0.0166 -0.0222,-0.0111 -0.0222,-0.0166 -0.0166,-0.0111 -0.0222,-0.006 -0.0222,-0.0166 -0.0166,-0.0111 -0.0166,-0.0166 -0.0222,-0.006 -0.0166,-0.006 -0.0222,-0.0222 -0.0222,-0.006 -0.0111,-0.006 -0.0111,-0.0111 -0.0166,-0.006 -0.0277,-0.006 -0.0222,-0.006 -0.0222,-0.0166 -0.0222,-0.006 -0.0166,-0.006 -0.0222,-0.0111 -0.0222,-0.006 -0.0277,0 -0.0222,-0.006 -0.0166,-0.006 -0.0333,-0.0111 -0.0222,0 -0.0222,-0.006 -0.0277,0 -0.0222,-0.006 -0.0222,-0.006 -0.0277,0 -0.0166,0 -0.0222,-0.0111 -0.0333,0 -0.0222,0 -0.0222,-0.006 -0.0277,0 -0.0222,0 -0.0166,0 -0.0222,0 -0.0277,0 -0.0222,0 -0.0222,0 -0.0166,0 -0.0388,0 -0.0166,0 -0.0222,0 -0.0222,0 -0.0222,0 -0.0166,0 -0.0277,0 -0.0166,0 -0.0277,0 -0.0222,0 -0.0277,0 -0.0166,0 -0.0222,0 -0.0222,0 -0.0222,0.006 -0.0111,0 -0.0222,0 -0.0222,0 -0.0166,0 -0.0222,0.0111 -0.0222,0 -0.0166,0 -0.0222,0 -0.0222,0 -0.0166,0.006 -0.0166,0 -0.0166,0 -0.0222,0 -0.0166,0.006 -0.0166,0 -0.0111,0 -0.0222,0 -0.0166,0 -0.0111,0 -0.0277,0.006 -0.0166,0 -0.0111,0 -0.0166,0 -0.0111,0 -0.0166,0.0111 -0.0333,0 -0.0222,0 -0.0277,0.006 -0.0277,0 -0.0166,0 -0.0388,0.006 -0.0166,0 -0.0222,0 -0.0222,0.006 -0.0222,0 -0.0111,0.0111 -0.0222,0.006 -0.0111,0 -0.0222,0 -0.0166,0.006 -0.006,0.006 -0.0111,0 -0.0166,0.006 -0.0222,0.0111 -0.006,0.006 -0.006,0.006 -0.0166,0.006 -0.006,0.0166 -0.006,0.0111 0,0.0222 0,0.0166 0,0.0111 0.0111,0.006 0,0.0166 0.0166,0.006 0.006,0.006 0.006,0.0111 0.0166,0 0.0111,0.0111 0.0222,0.0166 0.0222,0.0111 0.0222,0.0166 0.0166,0.006 0.0166,0.0166 0.0222,0.0111 0.0166,0.0166 0.0166,0.0111 0.0222,0.006 0.0166,0.0166 0.0277,0.0166 0.0166,0.0166 0.0111,0.006 0.0222,0.0166 0.0166,0.0111 0.0166,0.006 0.0166,0.0166 0.0222,0.0166 0.0111,0.0111 0.0166,0.0166 0.0111,0.006 0.0166,0.0111 0.0111,0.0166 0.0166,0.0111 0.0111,0.0166 0.0222,0.006 0.0111,0.0166 0.0166,0.0111 0.006,0.0222 0.0166,0.0111 0.0111,0.0166 0.006,0.006 0.0111,0.0166 0.006,0.0111 0.0111,0.0166 0.0111,0.006 0.006,0.0111 0.006,0.0166 0.006,0.0111 0.0111,0.0166 0.006,0.006 0.006,0.0166 0.0166,0.0111 0,0.0166 0.006,0.0111 0.006,0.0166 0.006,0.0166 0.0111,0.0166 0.006,0.0111 0.006,0.0166 0.006,0.0166 0.0111,0.0111 0,0.0166 0.0111,0.0111 0.006,0.0166 0,0.0166 0.0111,0.0166 0.006,0.0111 0,0.0166 0.006,0.0166 0.006,0.0111 0,0.0222 0.0111,0.0111 0.006,0.0166 0,0.0166 0.006,0.0166 0,0.0111 0.006,0.0166 0,0.0166 0.0111,0.0111 0,0.0222 0.006,0.0111 0,0.0166 0.006,0.0111 0,0.0166 0.006,0.0222 0,0.0166 0.0111,0.0166 0,0.0222 0.006,0.0111 0,0.0166 0.006,0.0166 0,0.0166 0.006,0.0222 0,0.0111 0.0111,0.0166 0.006,0.0222 0,0.0111 0.006,0.0166 0.006,0.0166 0,0.0222 0.0111,0.0111 0.006,0.0222 0.006,0.0166 0,0.0111 0.006,0.0222 0.0111,0.0222 0.006,0.0222 0.006,0.0111 0.006,0.0222 0.0166,0.0111 0.006,0.0222 0.006,0.0166 0.0166,0.0222 0.006,0.0166 0.0166,0.0222 0.006,0.0111 0.006,0.0222 0.0166,0.0166 0.006,0.0166 0.0111,0.0166 0.0111,0.0222 0.006,0.0111 0.0111,0.0222 0.0111,0.0111 0.0111,0.0277 0.006,0.0166 0.0166,0.0222 0.006,0.0111 0.0166,0.0166 0.006,0.0166 0.0111,0.0222 0.0166,0.0166 0.006,0.0166 0.0166,0.0166 0.006,0.0222 0.0222,0.0111 0.006,0.0111 0.006,0.006 0.0166,0.006 0.0166,0.0222 0.0166,0.006 0.0111,0.0111 0.0222,0.0166 0.0166,0.006 0.0166,0.0166 0.0166,0.006 0.0222,0.0111 0.0111,0.0166 0.0166,0.0111 0.0277,0.0111 0.0111,0.0111 0.0222,0.0166 0.0111,0.006 0.0222,0.0166 0.0166,0.0111 0.0166,0.006 0.0166,0.0166 0.0222,0.0111 0.0111,0.0166 0.0166,0.0111 0.0166,0.0166 0.0166,0.0111 0.0222,0.006 0.0166,0.0166 0.0222,0.0111 0.0166,0.0111 0.0166,0.0111 0.0166,0.0166 0.0222,0.006 0.0111,0.0166 0.0222,0.006 0.0111,0.0111 0.0222,0.0166 0.006,0.006 0.0333,0.0554 0.006,-0.006 0.006,0 0,-0.006 0.006,0 0.0166,0 0,-0.0111 0.006,0 0.0111,0.0111 0.0166,0.006 0.0222,0.0111 0.0111,0.0111 0.0222,0.006 0.0111,0.0166 0.0222,0.0111 0.0166,0.006 0.0166,0.0166 0.0166,0.006 0.0166,0.006 0.0166,0.0166 0.0166,0.006 0.0277,0.006 0.0111,0.006 0.0222,0.0166 0.0111,0.006 0.0166,0.006 0.0222,0.0111 0.0111,0.006 0.0166,0.006 0.0166,0.006 0.0166,0.0166 0.0222,0.006 0.0111,0.006 0.0166,0.0111 0.0277,0.006 0.0111,0.006 0.0166,0.006 0.0111,0.0111 0.0222,0.006 0.0111,0.006 0.0166,0.006 0.0222,0.0111 0.0111,0.006 0.0166,0.006 0.0111,0.006 0.0166,0.0111 0.0222,0.006 0.0111,0.006 0.0166,0.0111 0.0166,0.0111 0.0222,0.006 0.0111,0.006 0.0166,0.006 0.0111,0.0111 0.0166,0.006 0.0222,0 0.0111,0.006 0.0166,0.006 0.0111,0.0111 0.0166,0.006 0.0111,0.006 0.0222,0.006 0.0166,0.0111 0.0111,0.006 0.0222,0 0.0111,0.006 0.0166,0.006 0.0111,0.0111 0.0166,0.006 0.0111,0.006 0.0166,0.006 0.0111,0.006 0.0166,0.0111 0.0111,0.006 0.0166,0 0.0111,0.006 0.0166,0.006 0.0111,0.0111 0.0166,0.006 0.0111,0.006 0.0222,0.006 0.0111,0.0111 0.0166,0.006 0.0111,0.006 0.0166,0.006 0.0111,0 0.0166,0.0111 0.0166,0.006 0.0111,0.006 0.0166,0.006 -0.0887,0 -0.0887,0 -0.0887,0 -0.0831,-0.006 -0.0942,-0.006 -0.0887,-0.0166 -0.0887,-0.006 -0.0831,-0.0111 -0.0831,-0.0222 -0.0887,-0.0166 -0.0831,-0.0166 -0.0776,-0.0222 -0.0887,-0.0222 -0.0776,-0.0277 -0.0887,-0.0222 -0.0776,-0.0388 -0.0776,-0.0277 -0.0776,-0.0277 -0.0776,-0.0333 -0.0776,-0.0388 -0.0831,-0.0388 -0.072,-0.0443 -0.072,-0.0388 -0.0776,-0.0443 -0.0776,-0.0388 -0.0665,-0.0499 -0.0831,-0.0443 -0.072,-0.0499 -0.0665,-0.0499 -0.072,-0.0554 -0.0776,-0.0499 -0.0554,0.0277 -0.061,0.38796 -0.32699,-0.0942 0.12193,-0.22169 -0.0166,-0.0499 -0.006,-0.006 0,-0.0111 -0.006,-0.006 -0.0111,0 -0.006,-0.006 -0.006,-0.006 -0.0111,-0.0111 -0.006,0 -0.006,-0.006 -0.0111,-0.006 -0.0111,-0.006 -0.006,0 -0.006,-0.0111 -0.006,-0.006 -0.0111,-0.006 -0.0111,0 -0.006,-0.006 -0.0111,-0.0111 -0.006,-0.006 -0.006,0 -0.006,-0.0111 -0.0166,-0.006 -0.006,0 -0.006,-0.0111 -0.0166,-0.006 -0.006,-0.006 -0.006,0 -0.0166,-0.006 -0.006,-0.0111 -0.006,-0.006 -0.0166,0 -0.006,-0.006 0.0111,0.0554 -0.006,0 -0.006,0 -0.006,-0.0111 -0.0166,0 -0.006,0 0,-0.006 0.0277,-0.0388 -0.0554,0.0111 -0.51543,0.83135 -0.0166,0.0388 -0.0166,0.0277 -0.0111,0.0277 -0.0166,0.0388 -0.0222,0.0277 -0.006,0.0222 -0.0111,0.0277 -0.0111,0.0277 -0.006,0.0277 -0.006,0.0222 0,0.0166 -0.0111,0.0277 0,0.0277 0,0.0277 0,0.0222 0,0.0222 0.0111,0.0277 0.006,0.0222 0.006,0.0166 0,0.0222 0.0166,0.0222 0.006,0.0222 0.006,0.0222 0.0166,0.0333 0.0111,0.0166 0.0166,0.0222 0.0111,0.0222 0.0166,0.0277 0.0111,0.0222 0.0166,0.0277 0.0111,0.0166 0.0222,0.0333 0.0554,0.072 0.0499,0.072 0.0499,0.0554 0.0443,0.0554 0.0554,0.0333 0.0554,0.0333 0.0499,0.0388 0.0499,0.0222 0.0499,0.0166 0.0554,0.006 0.0554,0.006 0.0443,-0.006 0.0443,-0.0111 0.0554,-0.0166 0.0499,-0.0333 0.0388,-0.0332 0.0443,-0.0333 0.0333,-0.0499 0.0443,-0.0499 0.0111,-0.0222 0.10531,0.0277 0.2882,-0.0554 0.0554,0.0333 0.0776,0.0388 -0.33808,0.0831 0.19398,0.0333 -0.11084,0.14964 0.46001,-0.16072 0.0443,0.0111 -0.60411,0.22724 -0.19398,0.26603 0.96436,-0.41567 0.0388,0.0111 -1.03641,0.50989 -0.19398,0.29375 1.38003,-0.74821 0.0333,0.0166 0.0222,0.006 -1.4798,0.85905 -0.31591,0.327 0.43784,-0.11085 1.55185,-1.01424 0.0443,0.0166 -1.4798,1.03087 0.35471,-0.0333 1.1916,-0.92556 -0.0166,-0.0333 0.0554,0.0831 0.0665,0.0776 0.0942,0.11639 0.0332,0.0388 -0.0111,-0.006 -0.67616,1.00315 -0.0166,0.31037 0.75375,-1.26364 0.0554,0.0499 -0.79255,1.35232 -0.0111,0.36579 0.88123,-1.6516 -0.0499,-0.0499 0.1441,0.0998 0.16073,0.0998 0.16073,0.061 -0.27712,1.08629 0.11639,-0.1441 0.061,0.1829 0.18289,-1.09183 0.0554,0.0222 -0.19399,1.19713 0.13302,0.27712 0.14964,-1.46871 0.0443,0.0111 -0.13301,1.56293 0.1441,0.33254 0.072,-1.88993 0.0388,0 -0.0388,1.98415 0.1053,0.46001 0.11639,-0.46001 -0.0222,-1.97861 0.0222,-0.006 0.072,1.88993 0.14964,-0.33254 -0.12193,-1.56293 -0.0388,0 0.0665,-0.0111 0.15519,1.49088 0.11638,-0.29928 -0.17735,-1.19714 0.0721,-0.0277 -0.0388,0.0277 0.20507,1.08075 0.0443,-0.19398 0.13301,0.13301 -0.2882,-1.05303 0.0388,-0.0222 0.34362,1.1528 0.23832,0.21615 -0.50989,-1.39666 0.0443,-0.0222 0.55423,1.45762 0.27157,0.22724 -0.73713,-1.71257 -0.0554,0.0166 0.0998,-0.0443 0.78701,1.77353 0.30483,0.36579 -0.11085,-0.48218 -0.85906,-1.73474 0.0277,-0.0166 0.87569,1.64052 -0.0166,-0.3658 -0.77038,-1.34677 0.0388,-0.0277 0.77038,1.24148 -0.0222,-0.31037 -0.68725,-0.99207 0.0333,-0.0333 0.70387,0.82581 -0.0665,-0.17736 0.16627,0.0277 -0.73158,-0.75376 0.0111,-0.0222 0.90894,0.76484 0.29374,0.0332 -1.14171,-0.87014 0.0111,-0.0111 0.0166,-0.0333 1.22485,0.88122 0.33808,0.0111 -1.51305,-0.97545 0.0222,-0.0333 1.60727,0.99761 0.43784,0.11085 -0.32146,-0.327 -1.52967,-0.85351 0.061,-0.0111 1.41883,0.7593 -0.18843,-0.31037 -1.08075,-0.50435 0.0277,-0.0166 0.0277,-0.006 0.98099,0.42121 -0.19398,-0.26049 -0.63737,-0.22723 0.0831,-0.0443 0.0111,0 0.50989,0.1441 -0.16073,-0.12747 0.17181,-0.072 -0.30482,-0.0554 0.0443,-0.0166 0.0831,-0.0499 0.0222,-0.0166 0.27712,0.0443 0.13855,-0.0554 0.0166,0.0166 0.0499,0.0388 0.0443,0.0222 0.0499,0.0222 0.0499,0.0166 0.0499,0.006 0.0499,0 0.0499,-0.0166 0.0499,-0.0111 0.0499,-0.0222 0.0499,-0.0388 0.0554,-0.0333 0.0554,-0.0443 0.0499,-0.0499 0.0499,-0.0554 0.0443,-0.0665 0.0499,-0.0776 0.0277,-0.0277 0.0166,-0.0222 0.0111,-0.0277 0.0166,-0.0222 0.0111,-0.0333 0.0166,-0.0166 0.0111,-0.0222 0.0166,-0.0222 0.0111,-0.0222 0.006,-0.0277 0.0166,-0.0222 0.006,-0.0166 0,-0.0222 0.006,-0.0222 0.0111,-0.0277 0.006,-0.0277 0,-0.0222 0,-0.0166 0,-0.0222 0,-0.0277 0,-0.0222 -0.006,-0.0277 -0.0111,-0.0222 -0.006,-0.0333 -0.006,-0.0277 -0.0166,-0.0277 -0.006,-0.0277 -0.0111,-0.0222 -0.0166,-0.0333 0.0554,0.0277 -0.1053,-0.16626 -0.006,-0.0111 -0.0222,0.0277 -0.0388,-0.0554 0.006,0 0.0277,0.0111 0.0166,0.006 -0.4988,-0.80363 0.006,0 -0.0222,-0.0332 -0.0277,0.0222 0.0166,0.0333 -0.0222,0.006 -0.006,0 0.0111,-0.0388 -0.006,0 -0.0166,0.006 -0.006,0.006 -0.0111,0 -0.0111,0.006 -0.0111,0.0111 -0.006,0.006 -0.0111,0.006 -0.006,0 -0.0111,0.006 -0.0111,0.0111 -0.006,0.006 -0.006,0 -0.0166,0.006 -0.006,0 -0.006,0.006 -0.0111,0.0111 -0.006,0.006 -0.006,0.006 -0.006,0 -0.0166,0.006 -0.006,0.0111 -0.006,0.006 -0.006,0 -0.0111,0.006 -0.006,0.006 -0.006,0.0111 -0.006,0 -0.0111,0.006 -0.006,0.006 -0.006,0.006 -0.006,0 -0.0222,0.0222 0.0111,0.0277 -0.006,0.0554 0.11085,0.2217 0.0277,-0.006 0.0222,0.0443 -0.0277,0.0111 -0.0277,-0.0499 -0.31037,0.0998 -0.0388,-0.18844 -0.0554,-0.0277 -0.0721,0.0499 -0.072,0.061 -0.0665,0.0499 -0.0776,0.0443 -0.0776,0.0443 -0.0665,0.0499 -0.0776,0.0443 -0.0776,0.0443 -0.0776,0.0388 -0.0665,0.0388 -0.0831,0.0388 -0.0776,0.0388 -0.0776,0.0388 -0.0831,0.0277 -0.0776,0.0277 -0.0831,0.0333 -0.0776,0.0222 -0.0776,0.0277 -0.0887,0.0222 -0.0776,0.0222 -0.0831,0.0166 -0.0887,0.0222 -0.0887,0.0222 -0.0831,0.0111 -0.0887,0.006 -0.0887,0.0166 -0.0831,0.006 -0.0998,0.006 -0.0831,0 -0.061,0.0111 0,-0.0111 0.0222,-0.006 0.0111,-0.006 0.0166,-0.006 0.0111,-0.0111 0.0166,0 0.0111,-0.006 0.0166,-0.006 0.006,-0.006 0.0222,-0.0111 0.0111,-0.006 0.0166,-0.006 0.0111,-0.006 0.0111,-0.0111 0.0111,-0.0111 0.0166,-0.006 0.0111,0 0.0166,-0.006 0.0166,-0.0111 0.0166,-0.006 0.0222,-0.006 0.006,-0.006 0.0222,-0.0111 0.006,-0.006 0.0222,-0.006 0.0111,0 0.0166,-0.006 0.0111,-0.0111 0.0166,-0.006 0.0111,-0.006 0.0166,-0.006 0.0111,-0.0111 0.0222,-0.006 0.0222,-0.006 0.0111,-0.006 0.0166,0 0.0111,-0.0111 0.0166,-0.006 0.0166,-0.006 0.0166,-0.006 0.0111,-0.0111 0.0166,-0.006 0.0222,-0.006 0.0111,-0.006 0.0166,-0.0111 0.0111,-0.006 0.0222,-0.006 0.0166,-0.006 0.0166,-0.0111 0.0166,-0.006 0.0166,-0.006 0.0166,-0.006 0.0111,-0.0111 0.0166,-0.006 0.0222,-0.006 0.0111,-0.006 0.0166,-0.0111 0.0222,-0.006 0.0111,-0.006 0.0166,-0.006 0.0166,-0.0222 0.0166,-0.006 0.0111,-0.006 0.0277,-0.0111 0.0166,-0.006 0.0166,-0.006 0.0166,-0.006 0.0222,-0.0166 0.0111,-0.006 0.0166,-0.006 0.0222,-0.0111 0.0111,-0.0111 0.0222,-0.006 0.0111,-0.0111 0.0222,-0.0111 0.0166,-0.006 0.0166,-0.0111 0.0222,-0.0111 0.0111,-0.006 0.0222,-0.0111 0.0166,-0.0111 0.0166,-0.006 0.0166,-0.0111 0.006,0 0,0.0111 0.006,0 0.0111,0.006 0.006,0 0,0.006 0.006,0 0.0222,-0.0554 0.0166,-0.006 0.0111,-0.0166 0.0222,-0.0166 0.0111,-0.0111 0.0277,-0.0111 0.0166,-0.006 0.0166,-0.0166 0.0166,-0.0111 0.0222,-0.0111 0.0111,-0.0111 0.0166,-0.0166 0.0222,-0.006 0.0166,-0.0111 0.0166,-0.0166 0.0222,-0.006 0.0111,-0.0166 0.0166,-0.0111 0.0222,-0.0166 0.0166,-0.006 0.0222,-0.0166 0.0111,-0.0111 0.0166,-0.006 0.0166,-0.0166 0.0166,-0.0111 0.0222,-0.0166 0.0111,-0.0111 0.0222,-0.0166 0.0166,-0.0111 0.0166,-0.006 0.0166,-0.0166 0.0277,-0.006 0.0111,-0.0166 0.0222,-0.0111 0.0111,-0.0111 0.0166,-0.0111 0.0222,-0.006 0.006,-0.0111 0.006,-0.006 0.0111,-0.0111 0.0111,-0.0222 0.0166,-0.0166 0.006,-0.0166 0.0111,-0.0222 0.0111,-0.0222 0.0111,-0.0166 0.006,-0.0166 0.0166,-0.0166 0.006,-0.0166 0.0166,-0.0166 0.0111,-0.0222 0.0111,-0.0111 0.0111,-0.0222 0.0111,-0.0111 0.006,-0.0222 0.0111,-0.0166 0.0111,-0.0277 0.006,-0.0111 0.0111,-0.0222 0.0111,-0.0111 0.0111,-0.0222 0.006,-0.0166 0.0111,-0.0166 0.0111,-0.0166 0.006,-0.0222 0.006,-0.0111 0.006,-0.0222 0.0111,-0.0166 0.006,-0.0166 0.006,-0.0277 0.006,-0.0222 0.0111,-0.0111 0.006,-0.0166 0.006,-0.0222 0,-0.0111 0.006,-0.0166 0.0111,-0.0222 0,-0.0111 0.006,-0.0166 0.006,-0.0166 0,-0.0166 0.0111,-0.0111 0,-0.0277 0.0111,-0.0166 0,-0.0111 0.006,-0.0222 0,-0.0166 0.006,-0.0166 0,-0.0166 0.006,-0.0111 0,-0.0222 0.0111,-0.0166 0,-0.0111 0.006,-0.0166 0.006,-0.0111 0,-0.0277 0,-0.0166 0.006,-0.0111 0,-0.006 0.0111,-0.0111 0,-0.0111 0,-0.0166 0.006,-0.0166 0.006,-0.0166 0,-0.0111 0.006,-0.0166 0.0111,-0.0166 0,-0.0111 0.006,-0.0166 0.006,-0.0111 0,-0.0166 0.0111,-0.0166 0.006,-0.0222 0,-0.0111 0.006,-0.0166 0.006,-0.0166 0.0111,-0.0111 0.006,-0.0166 0.006,-0.0111 0,-0.0166 0.006,-0.0111 0.0111,-0.0166 0.006,-0.006 0,-0.006 0.006,-0.0166 0.006,-0.0111 0.0111,-0.0166 0.006,-0.0111 0.006,-0.0111 0.006,-0.0111 0.0111,-0.0222 0.0166,-0.0111 0.006,-0.006 0.0111,-0.0166 0.006,-0.0111 0.0111,-0.0166 0.0111,-0.006 0.006,-0.0166 0.0111,-0.0111 0.0166,-0.0166 0.0166,-0.0111 0.0111,-0.0166 0.006,-0.0111 0.0166,-0.0111 0.0111,-0.0111 0.0166,-0.0166 0.0111,-0.0111 0.0222,-0.006 0.0166,-0.0166 0,-0.006 0.006,-0.0166 0.006,0 0.0222,-0.0111 0.0166,-0.0166 0.0166,-0.006 0.0111,-0.0111 0.0222,-0.0166 0.0222,-0.006 0.0166,-0.0166 0.0166,-0.0111 0.0166,-0.0166 0.0222,-0.006 0.0166,-0.0111 0.0166,-0.0166 0.0222,-0.0166 0.0222,-0.0111 0.0222,-0.006 0.0166,-0.0166 0.0166,-0.0111 0.0222,-0.0166 0.0222,-0.0166 0.0166,-0.0111 0.006,-0.006 0.006,-0.006 0.006,-0.0166 0.0111,-0.006 0.006,-0.0111 0,-0.0166 -0.006,-0.0222 -0.0111,-0.0111 -0.006,-0.0111 -0.006,-0.006 -0.006,-0.006 -0.0166,-0.006 -0.0111,-0.0111 -0.0111,-0.006 -0.0111,0 -0.0166,-0.006 -0.0111,-0.006 -0.0166,0 -0.0111,0 -0.0222,-0.006 -0.0277,-0.0111 -0.0111,0 -0.0222,-0.006 -0.0222,0 -0.0277,0 -0.0222,-0.006 -0.0277,0 -0.0222,0 -0.0277,-0.006 -0.0333,0 -0.0277,0 -0.0111,-0.0111 -0.0166,0 -0.0111,0 -0.0222,0 -0.0111,0 -0.0166,-0.006 -0.0166,0 -0.0166,0 -0.0166,0 -0.0222,0 -0.0111,0 -0.0166,-0.006 -0.0222,0 -0.0222,0 -0.0166,0 -0.0166,-0.006 -0.0166,0 -0.0222,0 -0.0166,0 -0.0222,0 -0.0166,-0.0111 -0.0222,0 -0.0166,0 -0.0222,0 -0.0277,0 -0.0222,-0.006 -0.0166,0 -0.0222,0 -0.0222,0 -0.0222,0 -0.0222,0 -0.0166,0 -0.0222,0 -0.0222,0 -0.0222,0 -0.0222,0 -0.0277,0 -0.0222,0 -0.0222,0 -0.0222,0 -0.0222,0 -0.0277,0 -0.0166,0 -0.0222,0 -0.0222,0 -0.0333,0 -0.0222,0 -0.0166,0 -0.0222,0.006 -0.0277,0 -0.0222,0 -0.0277,0.0111 -0.0222,0 -0.0222,0 -0.0166,0.006 -0.0333,0.006 -0.0222,0 -0.0222,0.006 -0.0277,0 -0.0222,0.0111 -0.0222,0.006 -0.0277,0.006 -0.0166,0 -0.0222,0.006 -0.0222,0.0111 -0.0277,0.006 -0.0166,0.006 -0.0222,0.0166 -0.0222,0.006 -0.0222,0.006 -0.0222,0.006 -0.006,0.0111 -0.006,-0.0111 -0.0166,0.0166 -0.0111,0.006 -0.0222,0.0166 -0.0222,0.006 -0.0222,0.006 -0.0222,0.0166 -0.0166,0.0111 -0.0166,0.0166 -0.0222,0.006 -0.0222,0.0111 -0.0222,0.0222 -0.0111,0.0111 -0.0222,0.0166 -0.0222,0.0166 -0.0111,0.0111 -0.0222,0.0166 -0.0277,0.0166 -0.0111,0.0166 -0.0222,0.0111 -0.0166,0.0166 -0.0166,0.0111 -0.0166,0.0222 -0.0222,0.0166 -0.0111,0.0222 -0.0222,0.0111 -0.0166,0.0277 -0.0111,0.0111 -0.0222,0.0222 -0.0111,0.0166 -0.0166,0.0166 -0.0166,0.0166 -0.0222,0.0222 -0.0166,0.0166 -0.0111,0.0222 -0.0166,0.0166 -0.0111,0.0222 -0.0166,0.0222 -0.0111,0.0222 -0.0166,0.0222 -0.0111,0.0222 -0.0166,0.0166 -0.0111,0.0222 -0.0166,0.0222 -0.006,0.0222 -0.0166,0.0277 -0.0111,0.0222 -0.0222,0.0166 -0.006,0.0333 -0.0111,0.0222 -0.0166,0.0222 -0.006,0.0277 -0.0166,0.0222 -0.0111,0.0277 -0.006,0.0166 -0.0166,0.0333 -0.006,0.0277 -0.0166,0.0222 -0.006,0.0277 -0.0166,0.0222 -0.006,0.0277 -0.0111,0.0277 -0.0111,0.0222 -0.0277,-0.54869 -0.0111,0.0166 0.0111,-0.0388 0,0.0222 0.0166,-0.006 0.0222,-0.0222 0.0166,-0.0222 0.0166,-0.0333 0.0222,-0.0166 0.0166,-0.0222 0.0166,-0.0277 0.0166,-0.0277 0.0111,-0.0222 0.0166,-0.0277 0.0111,-0.0277 0.0222,-0.0277 0.006,-0.0333 0.006,-0.0277 0.0166,-0.0388 0.006,-0.0277 0.006,-0.0277 0.006,-0.0333 0,-0.0277 0.0111,-0.0388 0.006,-0.0388 0,-0.0277 0.006,-0.0333 0,-0.0333 0,-0.0222 0.006,-0.006 0.0443,-0.0831 0.0499,-0.072 0.0333,-0.072 0.0388,-0.0776 0.0277,-0.0776 0.0222,-0.0665 0.0222,-0.0831 0.0222,-0.072 0.006,-0.0665 0.0166,-0.0831 0,-0.072 0.006,-0.0665 -0.006,-0.072 0,-0.0776 -0.0111,-0.0665 -0.0111,-0.072 -0.0166,-0.072 -0.0111,-0.0721 -0.0166,-0.061 -0.0222,-0.0776 -0.0166,-0.0665 -0.0333,-0.0665 -0.0277,-0.0665 -0.0277,-0.072 -0.0333,-0.061 -0.0277,-0.061 -0.0333,-0.072 -0.0277,-0.061 -0.0333,-0.061 -0.28266,-0.55977 -0.006,-0.0166 -0.0111,-0.0222 -0.006,-0.0222 -0.006,-0.0111 -0.0111,-0.0222 -0.006,-0.0111 -0.006,-0.0222 -0.006,-0.0166 -0.0166,-0.0111 -0.006,-0.0166 -0.006,-0.0166 -0.0166,-0.0222 -0.006,-0.0166 -0.006,-0.0111 -0.0166,-0.006 -0.006,-0.0166 -0.0166,-0.0111 -0.006,-0.0166 -0.0111,-0.006 -0.0111,-0.0166 -0.006,-0.0111 -0.0111,-0.006 -0.0166,-0.0111 -0.0111,-0.0111 -0.0166,-0.006 -0.006,-0.0166 -0.006,-0.006 -0.0166,-0.0166 -0.006,-0.006 -0.0166,-0.0166 -0.006,-0.006 -0.0111,-0.006 -0.0388,0 z m -1.19714,7.79247 -0.0831,-0.072 -0.76484,0.80917 0.19398,-0.0721 -0.0333,0.17181 0.68725,-0.83689 z m 1.21931,-5.52013 0.0222,0.0554 c -0.002,-0.009 -0.005,-0.0298 0,-0.0554 l 0.006,0.0443 0,0.0111 -0.0111,0.072 -0.0166,-0.0554 0.0222,-0.0111 0,-0.006 -0.0222,0.006 0,-0.0277 0,-0.0333 z m 2.46632,3.11477 0.0222,0.0333 0.0222,0.0277 -0.0166,0.0166 -0.006,-0.0443 -0.0332,0.0222 -0.0111,-0.0166 0.0222,-0.0388 z m -5.18205,0.0388 0,0.0222 -0.0166,-0.0166 0.0166,-0.006 z m -0.0443,0.0166 0,0.0166 -0.0111,-0.0111 0.0111,-0.006 z m 2.67693,0.0554 0.0111,0.0388 0,0.0166 -0.006,-0.0166 -0.006,-0.0111 0,-0.0277 z m 0.006,0.72604 0.006,0 0,0.0111 0.0111,0.0222 -0.0222,0 0.006,-0.0222 0,-0.0111 z m 2.64922,0.63183 0.0333,0.006 0.0222,0.0222 0.0166,0.0333 -0.13301,-0.0222 0.0333,-0.0166 0.0277,-0.0222 z m -5.37603,0.0222 0.0831,0.0499 0.0277,0.0222 -0.15519,0.0222 0.0277,-0.0776 0.0166,-0.0166 z m 1.34678,0.60965 0.0111,0 0.0111,0.0222 -0.0222,-0.0222 z m 0.0665,0.11639 -1.10846,0.9311 0.2882,-0.0665 0.88122,-0.78701 -0.061,-0.0776 z m 0.41567,0.39904 -0.88123,1.75691 -0.0831,0.47664 0.27711,-0.36579 0.80918,-1.77908 -0.12193,-0.0887 z m 0.1441,0.10531 -0.7205,1.73474 0.27712,-0.23832 0.5376,-1.44654 -0.0942,-0.0499 z m 0.12193,0.061 -0.47664,1.40221 0.22724,-0.21615 0.33808,-1.14726 -0.0887,-0.0388 z"
         style="fill:#000000;fill-opacity:1;stroke:none" />
    </g>
    <g
       id="g3422"
       transform="translate(38.073024,4.230336)">
      <text
         sodipodi:linespacing="125%"
         id="text3388"
         y="-199.3073"
         x="164.40765"
         style="font-size:25.08580017px;font-style:normal;font-variant:normal;font-weight:normal;font-stretch:normal;line-height:125%;letter-spacing:0px;word-spacing:0px;fill:#000000;fill-opacity:1;stroke:none;font-family:Puritan;-inkscape-font-specification:Puritan"
         xml:space="preserve"><tspan
           id="tspan3392"
           style="font-size:75.25740051px;font-style:normal;font-variant:normal;font-weight:bold;font-stretch:normal;letter-spacing:-5.39344597px;fill:#000000;font-family:Karla;-inkscape-font-specification:Karla Bold"
           y="-199.3073"
           x="164.40765"
           sodipodi:role="line">Web Permusyaratan IMM</tspan></text>
      <text
         xml:space="preserve"
         style="font-size:25.08580017px;font-style:normal;font-variant:normal;font-weight:normal;font-stretch:normal;line-height:125%;letter-spacing:0px;word-spacing:0px;fill:#000000;fill-opacity:1;stroke:none;font-family:Puritan;-inkscape-font-specification:Puritan"
         x="164.40765"
         y="-151.36348"
         id="text3418"
         sodipodi:linespacing="125%"><tspan
           sodipodi:role="line"
           x="164.40765"
           y="-151.36348"
           style="font-size:48px;font-style:normal;font-variant:normal;font-weight:bold;font-stretch:normal;letter-spacing:-5.39344597px;fill:#000000;font-family:Karla;-inkscape-font-specification:Karla Bold"
           id="tspan3420">IMM Setengah Abad</tspan></text>
    </g>
  </g>
</svg>
