<?xml version="1.0" encoding="UTF-8" standalone="no"?>
<!-- Created with Inkscape (http://www.inkscape.org/) -->

<svg
   xmlns:dc="http://purl.org/dc/elements/1.1/"
   xmlns:cc="http://creativecommons.org/ns#"
   xmlns:rdf="http://www.w3.org/1999/02/22-rdf-syntax-ns#"
   xmlns:svg="http://www.w3.org/2000/svg"
   xmlns="http://www.w3.org/2000/svg"
   xmlns:sodipodi="http://sodipodi.sourceforge.net/DTD/sodipodi-0.dtd"
   xmlns:inkscape="http://www.inkscape.org/namespaces/inkscape"
   width="900"
   height="753"
   id="svg2"
   version="1.1"
   inkscape:version="0.48.5 r10040"
   sodipodi:docname="login_pic.svg"
   inkscape:export-filename="C:\xampp\htdocs\loginandregister\landing-page\img\doge.png"
   inkscape:export-xdpi="90"
   inkscape:export-ydpi="90">
  <defs
     id="defs4">
    <clipPath
       id="clipPath3643"
       clipPathUnits="userSpaceOnUse">
      <path
         inkscape:connector-curvature="0"
         id="path3645"
         d="m 0,0 21.6153,0 0,101.2445 L 0,101.2445 0,0 z" />
    </clipPath>
    <mask
       maskUnits="userSpaceOnUse"
       id="mask8903">
      <rect
         ry="43.34465"
         y="415.65085"
         x="449.87524"
         height="481.27509"
         width="578.42688"
         id="rect8905"
         style="fill:#808000;fill-opacity:1;stroke:none" />
    </mask>
  </defs>
  <sodipodi:namedview
     id="base"
     pagecolor="#ffffff"
     bordercolor="#666666"
     borderopacity="1.0"
     inkscape:pageopacity="0.0"
     inkscape:pageshadow="2"
     inkscape:zoom="0.39925736"
     inkscape:cx="410.70299"
     inkscape:cy="322.00657"
     inkscape:document-units="px"
     inkscape:current-layer="layer1"
     showgrid="false"
     inkscape:window-width="1366"
     inkscape:window-height="705"
     inkscape:window-x="-4"
     inkscape:window-y="-4"
     inkscape:window-maximized="1"
     showguides="true"
     inkscape:guide-bbox="true" />
  <metadata
     id="metadata7">
    <rdf:RDF>
      <cc:Work
         rdf:about="">
        <dc:format>image/svg+xml</dc:format>
        <dc:type
           rdf:resource="http://purl.org/dc/dcmitype/StillImage" />
        <dc:title></dc:title>
      </cc:Work>
    </rdf:RDF>
  </metadata>
  <g
     inkscape:label="Layer 1"
     inkscape:groupmode="layer"
     id="layer1"
     transform="translate(0,-299.36218)">
    <g
       id="g9055">
      <path
         inkscape:connector-curvature="0"
         id="path9049"
         d="m 517.35485,982.60997 c -18.34129,-1.7473 -34.38527,-9.3842 -47.71359,-22.7116 -11.60857,-11.6078 -18.76584,-25.4855 -21.137,-40.9836 -1.22361,-7.9979 -0.77852,-24.314 0.92588,-33.9406 2.84761,-16.0834 9.23987,-35.812 21.52011,-66.4183 11.86227,-29.5644 13.19983,-33.7695 15.4495,-48.5702 1.69089,-11.1245 1.84743,-31.1189 0.31367,-40.06 -2.3291,-13.5774 -10.88209,-40.9996 -17.65301,-56.5984 -1.37244,-3.1618 -2.23295,-5.7487 -1.91226,-5.7487 1.14743,0 16.12935,15.6461 21.93514,22.9075 7.35722,9.2019 11.02146,14.6055 14.22558,20.9781 8.29696,16.5019 12.3861,35.1925 12.41928,56.7659 0.0193,12.493 -0.50191,18.2951 -3.08713,34.3733 -2.56269,15.9375 -4.0043,28.5157 -4.57824,39.945 -2.0458,40.7411 8.03269,63.4784 31.82163,71.7901 4.40555,1.5392 5.23329,1.6327 14.0444,1.5864 8.42418,-0.044 9.89095,-0.2087 14.62959,-1.6404 8.53168,-2.5776 13.8414,-5.7071 19.94416,-11.7548 6.35925,-6.3019 9.82898,-11.7033 13.81583,-21.5075 7.77516,-19.1202 10.74824,-40.7101 9.34989,-67.898 -0.77075,-14.9856 -1.57754,-23.5322 -4.23081,-44.8165 -0.97768,-7.8426 -1.67492,-14.362 -1.54946,-14.4875 0.37973,-0.3797 7.81828,12.9986 12.07936,21.7247 9.75074,19.9682 16.5171,40.9141 19.3965,60.0439 4.06919,27.0345 -0.82184,59.1039 -12.88698,84.4964 -15.30974,32.2212 -42.13175,53.4106 -76.25016,60.2379 -11.68284,2.3378 -22.17729,3.1152 -30.87188,2.2869 z m 155.89304,-48.2502 c 22.76341,-41.7019 36.70307,-76.9616 43.35308,-109.6595 5.01912,-24.6788 8.49401,-58.7099 8.49401,-83.1858 0,-65.654 -21.58152,-134.7416 -57.98571,-185.6258 -19.34998,-27.0466 -38.31051,-47.4187 -61.39172,-65.9621 -20.19784,-16.227 -28.0888,-21.305 -28.0888,-18.0757 0,0.4917 1.35358,3.8492 3.00795,7.4611 9.4564,20.6456 13.8592,37.4676 16.34535,62.4521 1.06076,10.6594 -0.0163,21.8408 -3.23332,33.5626 -3.57758,13.0361 -10.02607,25.1601 -18.23273,34.2798 -8.07671,8.9753 -26.5702,18.7008 -40.63298,21.3685 -6.85536,1.3004 -19.49281,1.1991 -26.7863,-0.2147 -23.54772,-4.5647 -40.93459,-17.0164 -56.69077,-40.5992 -4.84854,-7.2569 -11.82293,-21.0744 -15.07315,-29.8624 -5.09525,-13.7765 -8.97537,-30.6285 -10.60025,-46.0382 -1.3083,-12.4078 -0.86718,-39.0923 0.85612,-51.7887 5.2082,-38.371 15.37862,-70.0818 41.75928,-130.20336 12.12179,-27.62566 14.1419,-32.13412 14.31892,-31.9571 0.26404,0.26404 -3.91008,14.70362 -9.99922,34.59042 -18.91909,61.78864 -22.72343,80.99184 -24.99938,126.18974 -0.72147,14.328 -0.14326,30.515 1.56121,43.7015 5.68588,43.9892 25.59721,79.3366 52.11094,92.5095 18.63575,9.2589 38.36925,6.9042 52.34829,-6.2462 14.90579,-14.0223 20.28269,-35.2728 15.71294,-62.1001 -6.26386,-36.7729 -29.38294,-81.2955 -61.37826,-118.202 -2.61676,-3.0184 -4.63874,-5.6071 -4.49333,-5.7525 0.38973,-0.3898 10.49311,2.4493 20.50659,5.7623 90.268,29.8659 164.01387,98.2937 200.77866,186.3 8.02603,19.2124 16.26623,46.8117 19.83024,66.4183 3.64381,20.0459 4.98447,33.4193 5.42827,54.151 0.39254,18.3348 -0.25045,31.0152 -2.46186,48.5487 -7.06966,56.0532 -28.29333,110.3794 -59.67883,152.7599 -4.96879,6.7094 -16.24089,20.4095 -17.36315,21.1031 -0.3531,0.2182 0.85197,-2.3401 2.67791,-5.6852 z"
         style="fill:#ff0000"
         sodipodi:nodetypes="ssssssssssssssscssssscsssssssssssssssssssssscssssssscsssssscs" />
      <path
         sodipodi:nodetypes="sssscssscssssscssssssssssssssssssssscs"
         style="fill:#000000"
         d="M 341.02418,1048.288 C 278.45794,1034.5013 222.00167,1003.6393 177.12741,958.69356 126.70537,908.19111 94.082605,843.23243 83.840265,772.93913 c -1.35208,-9.27918 -2.8856,-24.77716 -3.03553,-30.67752 l -0.10545,-4.14859 -0.33344,4.38888 c -0.62638,8.24422 -1.34288,-17.14033 -0.81954,-29.03579 0.4043,-9.1904 0.54216,-10.31091 0.81954,-6.6604 l 0.33344,4.38888 0.10545,-3.85601 c 0.1573,-5.75317 1.7239,-21.38087 3.0745,-30.66982 15.32864,-105.42564 80.726415,-196.97999 175.804505,-246.11935 36.18602,-18.70213 74.21829,-30.12153 115.85568,-34.78634 8.58968,-0.96233 24.29571,-1.80014 24.29571,-1.29602 0,0.1821 -1.07926,2.2356 -2.39826,4.56334 -1.31906,2.32773 -4.85217,9.13212 -7.85135,15.12087 -23.71304,47.34985 -33.6948,84.18459 -31.33605,115.63645 1.58046,21.07323 6.46639,41.01067 16.13327,65.83315 1.69212,4.34498 7.73981,18.95994 13.43939,32.47768 28.05866,66.54743 32.45164,81.0387 31.7541,104.74784 -0.24039,8.17272 -0.5623,10.97546 -1.80353,15.70469 -6.75419,25.73366 -30.07036,46.373 -56.96727,50.4272 -14.4113,2.17222 -27.42043,-0.20811 -41.60985,-7.61348 -23.05423,-12.03187 -36.93371,-30.94352 -40.79996,-55.5925 -0.79813,-5.08876 -0.94519,-8.70454 -0.70181,-17.26291 0.36399,-12.79992 0.67993,-14.63642 4.87031,-28.30785 3.31582,-10.81796 5.71057,-16.66847 10.05989,-24.57652 2.49297,-4.53292 2.7731,-6.21916 1.033,-6.21916 -1.51987,0 -18.3243,14.40565 -28.61814,24.53303 -19.60406,19.28706 -31.57428,35.16868 -42.59691,56.51581 -7.68709,14.88729 -11.91071,27.18195 -14.77524,43.01006 -2.43126,13.43349 -2.97571,20.37086 -2.93961,37.45173 0.0603,28.50742 2.34079,40.37055 13.83649,71.97752 8.37491,23.02656 21.50924,48.57257 34.81321,67.71123 15.83131,22.77434 38.85325,46.98027 63.3623,66.62077 11.93188,9.5618 14.26834,11.1393 30.13691,20.3479 2.57481,1.4941 4.28648,2.7013 3.80369,2.6825 -0.48277,-0.019 -4.82776,-0.9045 -9.65553,-1.9684 z"
         id="path9051"
         inkscape:connector-curvature="0" />
      <path
         inkscape:connector-curvature="0"
         id="path9053"
         d="m 492.60135,1049.9255 c -1.1265,-0.1076 -4.9448,-0.4707 -8.4852,-0.8067 -32.539,-3.089 -68.7836,-14.7637 -98.0182,-31.5724 -10.4998,-6.0369 -16.2035,-9.6997 -24.6982,-15.8605 -37.0647,-26.8811 -67.2394,-64.5531 -84.9855,-106.1008 -1.4693,-3.44 -2.6715,-6.449 -2.6715,-6.6866 0,-0.2376 2.5112,0.8012 5.5804,2.3085 9.7882,4.807 21.4251,7.065 30.2677,5.873 2.6522,-0.3575 5.3488,-0.7889 5.9925,-0.9588 1.0121,-0.2669 1.6845,0.7764 4.9741,7.7191 28.8247,60.8352 91.3568,107.2503 160.6328,119.2313 14.5611,2.5183 20.2322,2.9533 38.0369,2.918 17.5971,-0.035 24.3181,-0.5968 38.6221,-3.2288 34.8459,-6.412 69.2304,-23.05 98.896,-47.854 7.8266,-6.5439 26.2425,-25.1763 32.4757,-32.8574 36.2934,-44.7239 58.4059,-95.6625 68.7626,-158.40218 1.6773,-10.16131 1.5074,-5.72912 -0.3744,9.76564 -8.9042,73.31634 -39.8052,141.10224 -85.5831,187.73924 -40.1234,40.8762 -88.5536,64.0368 -143.3215,68.5401 -6.784,0.5579 -31.0621,0.7148 -36.1032,0.2333 z M 283.69085,866.7997 c -5.6682,-1.5281 -10.5389,-6.6246 -11.7066,-12.2494 -1.5725,-7.5747 1.92,-14.9325 8.659,-18.2418 2.7606,-1.3556 4.051,-1.6289 7.4365,-1.5752 4.8766,0.077 7.6098,1.1522 11.0917,4.3617 3.7506,3.4572 5.2014,7.2878 4.8777,12.879 -0.2016,3.4834 -0.6057,5.0734 -1.8122,7.1323 -3.8297,6.5348 -11.3194,9.6417 -18.5461,7.6934 z"
         style="fill:#ffff00"
         sodipodi:nodetypes="cssssssccsscsssssssccssssssc" />
    </g>
  </g>
</svg>
